<?xml version="1.0" standalone="no"?>
<!DOCTYPE svg PUBLIC "-//W3C//DTD SVG 20010904//EN"
 "http://www.w3.org/TR/2001/REC-SVG-20010904/DTD/svg10.dtd">
<svg version="1.0" xmlns="http://www.w3.org/2000/svg"
 width="810.000000pt" height="810.000000pt" viewBox="0 0 810.000000 810.000000"
 preserveAspectRatio="xMidYMid meet">

<g transform="translate(0.000000,810.000000) scale(0.100000,-0.100000)"
fill="#000000" stroke="none">
<path d="M3810 7770 c-30 -4 39 -6 154 -4 114 2 211 5 214 9 8 7 -302 3 -368
-5z"/>
<path d="M3683 7753 c9 -2 23 -2 30 0 6 3 -1 5 -18 5 -16 0 -22 -2 -12 -5z"/>
<path d="M4558 7753 c6 -2 18 -2 25 0 6 3 1 5 -13 5 -14 0 -19 -2 -12 -5z"/>
<path d="M3603 7743 c9 -2 25 -2 35 0 9 3 1 5 -18 5 -19 0 -27 -2 -17 -5z"/>
<path d="M4618 7743 c6 -2 18 -2 25 0 6 3 1 5 -13 5 -14 0 -19 -2 -12 -5z"/>
<path d="M3558 7733 c7 -3 16 -2 19 1 4 3 -2 6 -13 5 -11 0 -14 -3 -6 -6z"/>
<path d="M5695 7699 c-22 -10 -49 -19 -60 -19 -35 0 -117 -45 -202 -108 -44
-34 -85 -62 -89 -62 -5 0 -70 28 -144 61 -126 58 -290 120 -314 119 -6 -1 34
-18 89 -38 116 -44 345 -152 345 -163 0 -4 -24 -28 -52 -53 -74 -64 -148 -156
-148 -184 0 -12 11 -45 25 -72 14 -27 25 -52 25 -56 0 -3 -28 18 -62 48 -109
94 -94 74 46 -62 141 -138 269 -289 400 -472 43 -60 79 -108 81 -108 8 0 -43
90 -78 138 -49 68 -54 82 -16 43 18 -19 35 -29 37 -23 2 7 10 12 18 12 9 0 12
-4 9 -10 -3 -5 -1 -10 5 -10 6 0 9 -4 6 -8 -2 -4 4 -9 15 -9 11 -1 17 3 13 8
-3 5 0 8 8 7 7 -2 12 2 11 9 -2 7 4 10 12 6 13 -5 13 -7 -2 -20 -17 -14 -17
-14 -1 -9 11 3 17 0 15 -6 -1 -7 10 -13 26 -13 15 -1 27 3 27 7 0 4 -5 8 -12
8 -6 0 -9 2 -7 4 7 7 110 -29 145 -50 29 -18 31 -23 33 -86 1 -40 -3 -77 -11
-95 -18 -36 -12 -77 9 -69 13 5 15 -5 11 -68 -2 -50 0 -70 6 -59 8 14 11 53
16 211 0 6 4 12 10 12 5 0 6 -7 3 -17 -5 -12 -3 -14 7 -8 9 5 11 4 6 -3 -4 -7
4 -27 18 -45 14 -19 23 -37 18 -42 -4 -5 -1 -5 6 -1 9 5 13 3 11 -5 -1 -8 6
-32 16 -54 13 -29 19 -72 22 -160 3 -104 1 -131 -20 -205 l-24 -85 -53 113
c-29 62 -54 111 -56 109 -3 -3 82 -210 116 -282 18 -38 19 -39 13 -8 -3 21 4
58 21 108 14 41 27 97 27 123 l2 47 8 -55 c20 -143 27 -243 21 -330 l-7 -95
-28 70 c-34 87 -31 70 26 -125 103 -354 142 -598 140 -890 -1 -169 -21 -397
-41 -449 -4 -11 -7 98 -8 242 0 297 -18 443 -74 599 -16 48 -34 104 -39 125
l-9 38 -1 -35 c-9 -262 -29 -389 -87 -575 -30 -94 -109 -265 -122 -265 -16 0
-21 -38 -6 -44 10 -4 14 -41 17 -163 l3 -158 2 172 c2 145 5 178 21 210 10 21
29 67 42 102 27 71 40 82 71 55 28 -26 53 -86 72 -178 23 -110 20 -141 -18
-226 -42 -97 -158 -287 -196 -323 -21 -20 -30 -38 -30 -60 -1 -46 -33 -186
-70 -302 -66 -204 -167 -380 -265 -460 -23 -19 -45 -35 -48 -35 -4 0 12 28 34
63 59 90 107 196 145 322 41 133 43 157 5 55 -138 -369 -345 -671 -596 -871
-117 -93 -144 -122 -50 -54 17 12 35 25 42 29 14 8 -41 -116 -69 -154 -9 -14
-22 -43 -27 -65 -5 -22 -18 -62 -30 -90 -11 -27 -26 -70 -32 -93 l-10 -44 -72
8 c-40 4 -108 7 -151 5 -75 -2 -79 -1 -65 16 9 13 6 12 -11 -3 -14 -12 -50
-27 -80 -33 -63 -14 -212 -71 -288 -111 -51 -27 -55 -28 -89 -14 -39 17 -83
12 -123 -14 -23 -14 -24 -14 -11 1 9 12 10 17 2 17 -6 0 -16 -11 -21 -25 -9
-25 -30 -35 -30 -14 0 5 -4 8 -9 5 -16 -10 -32 21 -71 135 -40 114 -70 168
-55 99 4 -19 7 -41 8 -47 0 -7 5 -13 10 -13 6 0 8 -3 4 -6 -3 -4 0 -18 7 -33
7 -14 16 -38 19 -52 7 -26 6 -26 -46 -21 -45 4 -60 11 -112 57 -33 28 -95 71
-137 95 -73 41 -78 46 -78 77 0 19 5 33 12 33 9 0 9 3 1 11 -9 9 -8 19 4 42
15 29 16 30 29 12 17 -23 18 -42 2 -48 -10 -4 -10 -6 0 -6 17 -1 26 24 18 54
-5 18 -13 25 -31 25 -44 0 -56 34 -53 156 l3 109 41 3 c39 3 42 6 48 37 5 23
1 45 -9 64 -23 45 -19 76 11 96 24 16 26 21 20 65 -6 44 -4 50 20 69 32 25 73
27 134 4 63 -23 82 -43 124 -132 l37 -79 -17 -41 c-9 -22 -20 -41 -24 -41 -4
0 -14 18 -23 40 -11 29 -21 40 -36 40 -34 0 -42 -32 -37 -155 2 -64 0 -117 -5
-121 -5 -3 -9 -18 -9 -34 0 -22 -6 -29 -27 -35 l-28 -7 33 -13 c22 -10 39 -28
52 -57 11 -24 18 -34 16 -23 -2 11 -7 90 -11 176 l-7 157 29 -6 28 -5 -28 23
c-22 17 -27 29 -25 54 3 35 31 44 36 11 6 -39 26 -66 64 -87 21 -12 54 -45 74
-74 35 -51 43 -81 48 -179 2 -34 15 -74 40 -125 41 -81 40 -49 -1 37 -19 41
-23 62 -18 91 6 37 -15 142 -33 166 -5 6 -10 34 -11 62 -1 53 -30 146 -74 247
-23 50 -24 57 -9 53 75 -22 112 -27 148 -22 87 12 441 168 711 314 l92 50 6
-36 c4 -21 15 -80 26 -132 10 -52 16 -96 12 -98 -39 -13 -80 -42 -91 -65 -7
-15 -27 -37 -43 -49 -27 -21 -56 -85 -50 -115 1 -8 -9 -13 -23 -13 -13 0 -32
-3 -41 -6 -19 -8 -45 -55 -45 -82 0 -11 -24 -46 -54 -78 -72 -78 -49 -84 26
-6 44 45 58 67 58 89 0 35 32 68 55 59 33 -12 55 12 55 61 0 41 4 49 43 83 23
21 49 49 56 64 12 21 22 26 51 26 37 0 37 -1 59 -66 12 -36 19 -69 16 -74 -7
-11 26 -23 36 -13 4 4 9 15 11 23 4 17 23 40 34 40 5 0 25 17 46 37 21 20 38
32 38 26 0 -14 -127 -262 -165 -323 -38 -60 -163 -198 -200 -221 -21 -13 -25
-19 -12 -19 23 0 22 -5 -10 -48 l-27 -37 35 33 c19 18 38 30 41 27 3 -4 5 2 4
11 0 10 13 27 30 39 37 25 139 115 108 94 -12 -8 -43 -29 -70 -48 l-48 -35 21
30 c12 16 33 40 48 54 59 54 182 260 284 474 33 69 58 126 56 126 -1 0 -36
-40 -76 -89 -41 -49 -75 -88 -78 -86 -2 3 9 21 25 42 73 94 159 257 200 376
30 86 124 453 124 483 0 12 10 34 23 50 19 25 12 22 -46 -19 -38 -26 -87 -56
-110 -67 l-42 -20 30 22 c17 13 52 45 78 73 90 93 192 350 247 620 35 173 39
245 6 105 -81 -347 -226 -570 -471 -726 l-30 -19 15 21 c8 12 37 50 64 85 97
128 205 396 243 603 10 56 23 96 35 108 10 10 14 18 8 18 -5 0 -10 5 -10 10 0
6 11 10 24 10 34 0 86 11 86 19 0 3 -25 19 -55 35 -61 32 -59 25 -46 154 4 40
4 75 0 77 -3 3 -9 75 -12 162 -11 290 -69 613 -159 893 -88 272 -158 418 -306
638 -83 124 -230 314 -255 328 -9 6 -9 5 0 -8 7 -8 11 -17 8 -19 -2 -3 32 -50
77 -104 172 -212 326 -480 409 -710 38 -104 106 -337 129 -441 15 -67 39 -265
41 -344 2 -69 -24 -367 -33 -376 -3 -3 -9 26 -12 63 -17 168 -89 549 -116 618
-5 11 -20 75 -35 143 -14 68 -30 133 -36 145 -8 19 -9 18 -4 -7 41 -203 55
-329 55 -484 0 -160 -15 -390 -26 -401 -2 -3 -32 8 -65 25 l-61 30 56 37 c31
20 56 39 56 41 0 3 -34 -11 -75 -30 -48 -22 -83 -32 -97 -29 -20 5 -36 43
-122 298 -54 161 -100 302 -103 314 -4 18 0 22 23 26 28 4 28 4 -3 6 -40 1
-49 15 -97 146 -76 211 -106 289 -101 265 3 -14 21 -88 39 -165 18 -77 37
-159 41 -182 l7 -43 -86 0 c-99 0 -89 -10 -149 145 -19 50 -79 191 -132 315
-53 124 -105 256 -115 293 -35 130 -41 90 -10 -61 43 -210 90 -726 68 -747 -3
-3 -1 -27 4 -53 22 -118 -39 -697 -83 -772 -5 -9 -9 20 -9 78 0 105 -20 305
-55 562 -13 96 -27 202 -30 235 -13 107 -22 31 -27 -220 -3 -169 -2 -232 5
-213 6 15 18 29 26 31 13 4 13 5 -1 6 -20 1 -23 36 -9 106 7 36 8 38 14 15 20
-75 56 -381 65 -555 l8 -150 16 55 c50 162 84 403 95 654 l6 158 41 19 c29 14
33 18 14 14 -14 -3 -33 -8 -42 -11 -28 -11 -18 24 12 41 l27 16 -26 -5 -26 -6
-6 168 c-4 92 -9 210 -12 262 l-6 95 23 -40 c38 -68 196 -430 191 -437 -2 -5
-14 -8 -26 -9 -12 0 -31 -5 -42 -10 -14 -6 -4 -8 33 -4 28 3 52 2 52 -3 0 -4
-28 -18 -62 -30 -59 -20 -50 -21 30 -2 31 8 34 6 52 -30 26 -51 112 -304 154
-452 l33 -117 -66 -20 c-91 -28 -167 -63 -218 -100 -44 -32 -54 -51 -28 -51
20 0 20 -1 -20 -61 -39 -59 -42 -71 -20 -63 8 4 15 2 15 -4 0 -5 -7 -15 -15
-22 -8 -7 -15 -17 -15 -22 0 -11 55 20 147 84 37 26 86 55 107 64 l39 16 -35
-34 c-92 -86 -132 -271 -93 -422 9 -32 23 -71 32 -87 l17 -28 29 51 c32 56 54
82 77 92 8 3 -6 3 -32 0 -31 -3 -48 -1 -48 6 0 14 43 30 80 30 29 0 53 -21 32
-28 -20 -6 -14 -32 7 -32 11 0 23 -9 26 -21 7 -22 76 -58 112 -59 12 0 34 5
50 12 15 6 31 12 36 12 4 1 8 6 8 11 1 6 12 20 25 32 23 21 26 21 60 7 36 -15
37 -15 31 5 -7 27 13 27 41 1 21 -20 21 -22 7 -57 -9 -20 -18 -39 -20 -42 -3
-2 7 -10 22 -18 25 -13 29 -12 41 4 22 30 51 138 58 215 7 81 -9 166 -47 239
l-21 41 41 -33 c114 -91 151 -206 117 -354 -8 -33 -12 -62 -10 -64 3 -3 34 25
69 62 36 38 65 64 65 59 0 -6 -9 -54 -20 -108 -51 -247 -165 -480 -300 -616
-32 -32 -56 -58 -54 -58 3 0 24 10 47 21 81 42 163 103 253 191 l91 89 -9 -58
c-9 -60 -44 -133 -83 -175 -33 -36 -105 -93 -140 -111 -30 -16 -30 -16 -5 -17
31 0 146 53 179 83 l24 22 -7 -55 c-3 -30 -6 -63 -6 -73 0 -17 -7 -18 -59 -15
l-60 3 -43 -65 c-143 -214 -433 -413 -883 -605 -60 -26 -155 -62 -210 -81
l-100 -33 -75 23 c-90 28 -519 184 -609 221 -198 81 -364 190 -438 286 -44 57
-113 195 -113 224 0 14 7 16 39 10 22 -3 61 -3 87 1 l47 7 -59 21 c-62 23
-132 64 -150 87 -13 18 -49 105 -58 140 l-6 27 53 -27 c68 -36 101 -47 67 -23
-14 9 -45 35 -70 57 -35 31 -39 33 -16 7 17 -18 25 -32 18 -32 -6 0 -13 4 -16
9 -3 4 -36 29 -73 54 -148 100 -299 291 -358 451 -41 111 -46 101 -6 -15 74
-218 265 -514 413 -638 29 -24 85 -59 123 -78 l70 -34 -77 5 c-71 5 -223 47
-278 76 -12 6 -24 9 -27 6 -3 -3 11 -13 30 -22 26 -13 38 -26 43 -48 3 -17 19
-73 35 -125 16 -51 29 -97 29 -101 0 -4 -21 -11 -46 -15 -66 -10 -155 -66
-221 -140 -52 -58 -59 -63 -70 -48 -12 15 -13 14 -13 -9 0 -14 -7 -31 -15 -38
-13 -10 -17 -7 -30 23 -8 20 -23 71 -32 113 -15 67 -15 93 -5 203 6 69 21 185
33 258 l22 132 75 -69 c65 -59 152 -120 152 -107 0 2 -24 20 -52 39 -29 19
-80 64 -112 99 l-59 64 -1 140 c-1 109 -5 147 -18 170 -40 75 -103 90 -149 36
-31 -37 -29 -39 -64 54 -70 186 -130 498 -142 728 -3 76 -11 141 -16 144 -10
6 -6 -116 13 -342 5 -60 9 -192 9 -292 1 -100 6 -217 12 -260 15 -106 54 -269
79 -327 24 -57 25 -62 4 -45 -50 41 -168 253 -212 380 -62 176 -99 437 -102
724 l-1 40 -14 -33 c-20 -45 -80 -301 -105 -447 -11 -65 -26 -206 -32 -313 -8
-120 -15 -185 -20 -172 -4 12 -11 139 -14 283 -9 369 7 507 108 937 220 936
430 1405 792 1766 121 120 224 194 381 273 55 27 96 50 92 50 -14 1 -145 -58
-198 -90 -102 -60 -63 -20 103 106 90 68 237 161 282 178 10 4 16 10 13 13
-14 14 -282 -153 -405 -253 -30 -24 -57 -43 -61 -43 -3 0 -42 36 -86 80 -77
78 -213 190 -231 190 -4 0 -39 18 -77 41 -38 22 -71 39 -73 36 -7 -7 61 -55
130 -91 36 -19 87 -51 113 -72 70 -55 203 -187 203 -201 0 -18 -50 -53 -77
-53 -40 0 -254 -113 -348 -184 -22 -16 -73 -59 -112 -94 -40 -35 -77 -62 -82
-60 -4 1 -31 24 -60 50 l-51 46 61 125 c50 103 62 136 66 191 6 70 -7 120 -34
131 -22 8 -26 0 -13 -24 32 -61 -14 -300 -55 -284 -7 2 -16 -5 -20 -16 -10
-33 -35 -1 -35 45 0 69 -23 21 -28 -59 l-4 -75 -35 10 c-41 11 -70 3 -103 -28
l-26 -24 -28 73 c-16 39 -31 100 -34 135 -7 85 -28 78 -24 -9 1 -42 13 -90 33
-143 26 -68 29 -83 18 -103 -14 -25 -30 -29 -60 -13 -23 13 -26 -2 -4 -20 13
-11 13 -15 3 -21 -17 -11 -295 -12 -302 -1 -9 15 83 63 146 75 60 11 61 12 24
15 -46 4 -108 -17 -157 -54 l-34 -25 -6 23 c-5 21 -6 20 -13 -9 -6 -25 -13
-33 -29 -33 -12 0 -28 -4 -35 -9 -8 -5 51 -11 145 -14 196 -8 209 -10 217 -48
4 -21 19 -38 52 -59 39 -25 44 -30 28 -36 -10 -3 -64 -28 -119 -55 -115 -57
-195 -112 -195 -135 0 -12 7 -10 32 9 50 38 132 76 199 93 90 23 96 17 58 -58
-17 -35 -38 -71 -47 -81 -8 -9 -13 -20 -9 -23 9 -9 85 75 124 138 20 32 41 58
47 58 6 0 27 -14 46 -29 l35 -29 -13 -48 c-31 -115 -98 -224 -277 -451 -142
-179 -178 -239 -179 -300 -1 -24 -4 -43 -8 -43 -4 0 -44 31 -90 68 -111 91
-293 302 -375 435 -59 95 -83 124 -83 99 0 -4 20 -41 45 -81 25 -40 45 -77 45
-81 0 -4 -71 -83 -157 -175 -87 -92 -158 -172 -158 -178 0 -6 33 -37 73 -70
39 -32 72 -62 72 -66 0 -4 -40 -47 -90 -95 -49 -49 -90 -91 -90 -95 0 -8 130
-116 185 -153 22 -16 61 -31 88 -34 68 -9 108 -40 129 -98 18 -47 18 -48 -2
-77 -45 -62 -170 -352 -158 -364 3 -3 18 30 33 72 15 43 55 131 87 195 l59
117 34 -21 33 -22 -29 -51 c-68 -116 -132 -286 -179 -475 -12 -47 -34 -124
-51 -173 -16 -48 -34 -128 -41 -177 -6 -49 -14 -87 -17 -84 -3 3 -9 60 -12
127 l-6 122 1 -140 c2 -138 2 -141 35 -205 45 -88 104 -173 132 -192 22 -14
23 -16 7 -39 -9 -13 -74 -87 -143 -164 -213 -236 -284 -359 -291 -511 -2 -44
-8 -112 -14 -150 -17 -117 -10 -124 15 -14 44 191 110 345 221 517 30 46 50
82 44 78 -19 -12 -160 -217 -155 -226 3 -4 -8 -34 -24 -67 -16 -32 -37 -84
-46 -115 -19 -66 -35 -82 -35 -35 0 60 39 176 84 250 50 82 95 137 240 295
165 179 275 341 390 572 90 180 154 438 158 638 l1 95 32 -5 c17 -3 47 -12 67
-20 35 -15 36 -16 28 -56 -7 -39 -5 -45 13 -42 4 0 7 -59 7 -132 0 -72 5 -150
11 -172 6 -22 11 -48 12 -57 1 -9 4 -15 8 -12 10 5 67 -237 74 -312 3 -33 8
-72 11 -88 l4 -29 -37 38 c-66 67 -133 82 -177 39 -53 -54 -38 -100 158 -466
31 -59 58 -117 59 -128 1 -11 4 -20 8 -20 12 0 49 -98 43 -114 -4 -11 0 -16
12 -17 12 0 14 -3 6 -6 -7 -3 -19 1 -28 7 -12 11 -13 10 -9 -2 9 -22 -21 -30
-40 -12 -13 14 -15 13 -15 -9 0 -13 -11 -34 -24 -46 -13 -12 -29 -43 -36 -67
-9 -32 -21 -49 -41 -60 -15 -8 -43 -32 -61 -55 l-32 -40 -17 80 c-10 43 -24
92 -32 108 -21 41 -54 193 -68 313 -7 65 -10 175 -6 288 l5 184 -32 -79 c-41
-103 -145 -289 -209 -378 -28 -38 -106 -136 -174 -217 -202 -241 -290 -374
-346 -522 -26 -70 -31 -95 -31 -181 -1 -113 20 -183 74 -245 l30 -35 -31 60
c-30 58 -31 64 -26 155 3 53 12 112 21 133 8 21 13 52 11 70 -4 26 -3 27 3 8
l8 -25 21 34 c26 40 24 43 47 -100 26 -167 114 -327 214 -391 45 -28 102 -39
102 -19 0 6 -12 10 -27 10 -56 0 -132 63 -190 160 l-21 35 33 84 c19 45 38 88
43 95 14 17 95 193 84 181 -12 -12 -134 -256 -152 -304 l-13 -33 -14 25 c-25
49 -53 197 -53 285 0 87 25 216 55 287 8 20 41 68 73 108 259 321 314 391 323
414 32 84 12 -72 -37 -287 -35 -156 -36 -157 -25 -140 11 18 95 294 107 350 4
19 9 55 11 80 2 25 5 55 6 68 1 12 5 22 8 22 3 0 6 6 6 13 0 6 18 49 40 93
l40 82 6 -222 c5 -206 7 -229 36 -341 41 -154 42 -304 5 -510 -29 -162 -88
-335 -115 -335 -4 0 -34 -20 -68 -45 -52 -38 -63 -52 -73 -91 -8 -27 -21 -50
-33 -56 -11 -6 -39 -28 -62 -49 -47 -43 -72 -47 -165 -28 -82 17 -153 57 -212
119 -71 74 -105 145 -131 274 -3 15 -8 26 -11 23 -10 -9 26 -153 51 -203 16
-32 53 -78 96 -119 l71 -67 -16 -63 c-9 -35 -16 -74 -15 -87 0 -22 1 -22 9 -3
5 11 16 46 25 79 13 46 20 57 33 53 73 -23 132 -37 162 -37 l35 0 -103 -101
c-57 -56 -101 -103 -98 -106 3 -3 49 38 103 90 111 108 242 217 261 217 7 0
12 14 12 35 0 76 114 155 235 163 42 3 80 0 92 -7 17 -8 22 -7 27 4 4 11 -3
17 -23 21 -24 5 -33 16 -50 56 -28 67 -27 86 5 99 15 5 28 8 30 7 1 -2 21 -55
44 -118 31 -86 39 -124 35 -150 -4 -26 -3 -31 5 -20 8 12 10 10 9 -10 -1 -14
1 -32 5 -42 6 -13 -2 -18 -51 -28 -78 -15 -125 -33 -63 -23 25 3 62 7 83 7 36
1 39 -1 59 -47 l21 -48 -20 -19 c-12 -10 -24 -16 -27 -13 -3 4 -6 1 -6 -5 0
-18 14 -15 39 9 l22 21 67 -39 c70 -40 78 -56 57 -108 -5 -12 3 -6 19 13 23
27 35 32 70 32 23 0 51 -7 64 -15 16 -12 27 -13 41 -5 38 20 70 12 91 -23 l20
-32 0 32 c0 36 7 42 59 54 32 7 40 5 71 -24 l35 -32 -30 33 c-30 33 -30 34
-10 48 11 9 40 21 64 27 28 8 47 20 54 34 6 13 17 23 24 23 10 0 12 6 8 19 -4
13 1 24 15 34 11 7 17 16 14 20 -9 9 47 107 68 118 13 7 25 5 43 -7 57 -37 73
-121 37 -191 -20 -38 -20 -43 -6 -72 20 -40 10 -88 -28 -140 -34 -47 -48 -52
-48 -17 0 31 -28 41 -51 20 -24 -22 -24 -45 2 -96 12 -24 18 -50 15 -63 -16
-61 -146 -144 -181 -115 -8 7 -15 23 -15 36 0 26 -32 64 -54 64 -29 0 -40 -29
-29 -73 13 -49 1 -70 -54 -93 -78 -33 -140 1 -129 72 14 86 -51 155 -145 153
l-44 -1 58 -12 c32 -7 70 -22 85 -33 24 -18 28 -28 32 -96 3 -41 11 -81 18
-89 14 -18 5 -87 -16 -110 -39 -46 -141 2 -143 65 l0 32 -12 -35 c-10 -30 -18
-36 -52 -41 -35 -6 -42 -3 -66 22 -15 16 -34 29 -43 29 -31 0 -97 41 -106 65
-10 27 -2 207 11 242 4 12 18 23 31 26 21 4 20 4 -4 6 -34 1 -45 -19 -54 -93
-6 -50 -9 -56 -30 -56 -40 0 -73 18 -89 51 -14 27 -15 36 -3 63 11 27 13 54 4
64 -2 1 -16 -4 -32 -13 -40 -20 -57 -19 -81 8 -34 37 -43 63 -43 127 0 49 5
69 25 98 27 39 36 83 11 50 -21 -29 -52 -22 -67 14 -7 17 -15 26 -17 19 -7
-20 27 -61 50 -61 21 0 21 -1 -5 -28 -15 -15 -27 -38 -27 -50 0 -12 -5 -22
-11 -22 -5 0 -7 5 -3 11 12 19 -180 -91 -273 -158 -88 -62 -79 -74 10 -14 41
27 90 56 110 64 35 15 35 15 31 -6 -3 -12 -6 -33 -8 -47 -1 -15 -28 -50 -69
-92 -37 -36 -67 -69 -67 -72 0 -10 64 -96 71 -96 4 0 10 5 12 10 3 6 4 5 3 -2
-1 -7 3 -19 11 -26 7 -7 13 -22 13 -32 0 -14 5 -18 18 -13 14 6 15 4 5 -9 -16
-18 -5 -32 14 -17 10 9 13 5 13 -19 0 -31 67 -127 96 -139 8 -3 14 -13 14 -23
0 -44 22 -23 81 76 l62 106 23 -45 c35 -68 68 -90 126 -84 46 6 47 6 58 -30 7
-19 32 -55 56 -80 43 -46 44 -46 98 -40 29 3 68 13 86 22 32 17 33 17 61 -14
32 -35 45 -40 30 -12 -8 15 -7 20 6 25 15 6 14 9 -5 28 -18 19 -32 21 -103 20
-46 0 -91 4 -103 11 -12 6 -24 11 -27 10 -3 -1 -6 3 -7 10 0 7 -7 29 -14 50
l-13 39 -50 -5 c-27 -2 -51 -10 -53 -16 -7 -22 -61 -11 -97 20 -56 50 -85 178
-47 211 22 20 77 38 113 38 28 0 28 0 27 -66 0 -36 3 -69 8 -73 5 -4 32 -16
59 -26 63 -22 72 -30 55 -50 -7 -8 -9 -19 -5 -23 4 -4 12 0 17 9 9 14 13 13
34 -8 25 -25 54 -29 101 -12 25 8 36 7 64 -10 72 -44 142 -13 155 68 l7 41 48
0 49 0 0 -38 c0 -21 11 -60 24 -88 32 -66 40 -108 24 -121 -15 -11 -105 -47
-158 -62 l-35 -11 38 6 c42 6 45 -1 26 -56 -7 -18 -33 -138 -58 -267 -35 -176
-44 -236 -35 -244 9 -7 13 3 18 38 4 27 11 62 15 78 5 17 28 112 52 212 24
100 45 180 47 178 3 -2 6 -30 8 -62 3 -56 10 -103 16 -108 18 -13 117 -61 113
-55 -3 5 7 2 23 -6 16 -7 34 -25 40 -40 9 -17 9 -23 1 -18 -8 4 -8 1 -1 -13 7
-12 7 -24 0 -37 -8 -14 -8 -17 2 -11 10 6 11 1 6 -21 -5 -23 -4 -26 5 -14 9
12 10 11 6 -8 -3 -13 -3 -21 0 -18 4 3 16 -11 27 -31 21 -38 91 -82 135 -86
19 -1 19 -3 5 -19 -18 -18 -158 -118 -168 -118 -3 0 -15 -9 -27 -21 -15 -15
-18 -24 -10 -32 10 -10 22 -6 72 20 3 2 4 -10 1 -26 -2 -16 1 -32 7 -35 7 -5
11 2 11 16 0 13 4 29 9 37 7 11 10 9 15 -7 11 -34 55 -62 97 -62 31 0 48 -8
89 -45 30 -27 69 -50 94 -57 37 -10 42 -14 38 -34 -3 -18 4 -27 37 -43 22 -12
42 -21 43 -21 2 0 2 17 0 38 -3 33 0 40 22 50 15 7 28 23 32 39 3 15 24 83 45
150 21 67 39 131 39 143 0 26 6 25 40 -2 15 -13 35 -28 45 -33 17 -10 17 -14
2 -60 -53 -163 -84 -373 -57 -390 7 -4 16 -2 21 6 7 11 9 10 9 -3 0 -10 5 -18
11 -18 7 0 9 10 5 25 -19 74 -18 115 4 187 31 104 48 133 66 118 7 -7 11 -16
8 -21 -3 -5 -1 -9 5 -9 10 0 7 -31 -5 -53 -6 -9 -5 -9 7 0 14 11 18 4 33 -50
21 -76 103 -257 124 -274 38 -31 36 -7 -4 70 -38 74 -91 215 -108 289 -6 25
-4 28 19 28 14 0 25 -5 25 -11 0 -5 4 -7 10 -4 5 3 18 1 29 -4 11 -6 35 -12
54 -13 19 -2 33 -6 30 -10 -2 -5 2 -8 10 -8 8 0 69 -55 135 -122 l121 -122 -6
-41 c-5 -38 -2 -45 37 -91 45 -52 70 -72 70 -55 0 5 -16 22 -36 37 -51 39 -69
78 -54 115 15 35 19 35 64 8 19 -11 46 -20 58 -19 46 4 50 1 43 -30 -5 -23 1
-41 27 -85 18 -30 38 -55 45 -55 7 0 -1 22 -19 50 -24 38 -29 56 -23 77 3 15
10 54 14 85 3 31 10 60 14 65 5 4 26 9 48 10 32 2 39 0 39 -16 0 -35 24 -43
103 -36 69 7 76 5 113 -20 35 -24 46 -27 105 -22 l67 4 4 -71 c3 -43 13 -90
27 -120 27 -60 38 -55 17 8 -27 79 -23 94 38 144 9 7 16 9 16 5 0 -4 4 -2 9 5
6 11 9 9 13 -6 5 -16 1 -18 -16 -14 -20 5 -20 4 -5 -14 9 -10 30 -46 47 -79
16 -33 40 -69 52 -80 l22 -20 -7 53 c-6 42 -4 52 8 52 8 0 49 22 91 50 42 27
79 50 81 50 15 0 1 -40 -20 -60 -14 -13 -25 -27 -25 -31 0 -11 84 -89 90 -83
3 3 -10 19 -27 35 l-33 29 17 34 c9 19 25 37 36 40 12 3 17 10 14 20 -6 16 26
60 37 49 3 -3 6 1 6 11 0 9 5 14 10 11 6 -3 10 -1 10 5 0 6 5 8 12 4 7 -4 8
-3 4 4 -4 8 3 16 19 22 15 6 41 21 58 34 27 21 45 25 119 27 48 2 90 1 93 -3
3 -3 -19 -28 -50 -56 -56 -52 -65 -74 -44 -114 8 -14 8 -18 0 -14 -17 11 0
-26 31 -64 l27 -34 80 13 c162 26 206 43 249 91 l39 44 38 -22 c55 -33 54 -19
-2 22 -56 41 -86 50 -128 37 -25 -8 -26 -9 -7 -10 28 -1 28 -5 -4 -55 -37 -59
-68 -79 -120 -78 -55 1 -108 29 -159 82 l-40 41 28 21 c15 11 73 60 130 110
102 90 187 155 187 143 0 -4 -9 -20 -21 -36 -11 -16 -18 -29 -15 -29 3 0 31
34 62 75 63 83 80 93 253 136 71 18 95 21 99 11 2 -6 8 -12 13 -12 6 0 8 4 5
9 -3 4 15 4 42 -1 54 -10 95 -3 113 18 16 20 46 18 84 -6 43 -27 115 -51 115
-40 0 6 8 10 19 10 10 0 24 7 31 15 12 14 15 14 36 0 13 -8 31 -15 41 -15 10
0 27 -6 38 -13 11 -7 41 -21 68 -31 26 -10 45 -21 43 -25 -6 -8 22 -12 42 -5
25 7 -15 34 -73 49 -57 15 -105 41 -105 56 0 5 -6 6 -13 3 -21 -8 -65 34 -72
69 -15 72 -15 72 -41 41 -13 -16 -29 -37 -35 -47 -10 -18 -9 -18 15 -2 31 21
46 13 46 -26 0 -25 -6 -33 -36 -45 -46 -19 -80 -7 -129 47 -37 41 -44 78 -24
122 13 30 88 67 134 67 38 0 157 -60 178 -90 15 -22 95 -40 127 -28 18 6 28 4
45 -12 12 -11 24 -17 28 -14 4 4 11 -4 16 -18 5 -13 16 -30 25 -37 9 -7 16
-26 16 -42 0 -27 2 -28 20 -17 25 16 35 39 14 31 -12 -4 -15 1 -12 23 2 23 9
30 30 32 15 2 37 -2 49 -8 14 -8 25 -8 31 -2 7 7 0 12 -20 17 -50 11 -96 9
-100 -4 -2 -7 -17 1 -35 20 -25 24 -29 33 -17 37 24 8 100 95 100 114 0 15 -5
14 -37 -8 -79 -54 -157 -87 -202 -86 -56 0 -71 19 -71 85 0 43 6 58 46 114 37
52 48 62 60 52 9 -7 14 -8 14 -1 0 6 -6 12 -12 15 -10 3 -10 8 1 21 8 9 11 19
8 22 -3 3 -47 -34 -99 -82 -111 -104 -141 -124 -190 -124 -20 0 -63 -7 -94
-15 -32 -8 -60 -12 -63 -10 -8 9 -8 87 1 130 5 22 17 63 28 90 28 75 33 95 21
95 -15 0 -45 -63 -67 -142 -11 -40 -22 -62 -26 -55 -4 7 -5 -2 -2 -19 10 -54
-21 -136 -40 -105 -3 4 -19 11 -36 14 -17 4 -30 13 -30 22 0 26 32 95 41 89 5
-3 6 -10 3 -16 -5 -7 -2 -8 5 -4 7 5 10 14 7 22 -3 8 0 14 6 14 6 0 8 3 5 6
-9 9 33 45 45 38 4 -3 7 -2 6 3 -1 4 3 18 10 31 7 12 11 22 8 22 -13 0 -104
-87 -123 -119 l-23 -36 0 65 c0 59 -12 102 -23 90 -9 -9 -12 -138 -4 -146 14
-14 7 -66 -12 -93 -11 -15 -47 -42 -80 -60 l-61 -32 -77 25 c-43 14 -77 30
-75 36 3 14 -23 41 -32 33 -3 -4 -6 2 -6 12 0 10 -2 16 -5 13 -9 -8 -75 53
-91 85 -15 28 -11 82 9 122 14 28 101 127 240 275 173 182 367 427 367 463 0
5 -37 -35 -82 -89 -65 -79 -86 -99 -107 -99 -22 0 -26 5 -29 30 -1 17 -7 49
-12 73 -10 39 -8 49 24 115 97 202 99 211 93 292 -3 44 -2 73 4 70 5 -4 6 2 2
11 -5 13 -3 15 7 9 8 -5 11 -4 6 3 -3 6 12 28 34 49 38 35 42 44 51 113 21
152 20 146 33 129 10 -15 14 -14 41 7 16 13 43 26 59 30 38 8 56 26 58 58 1
14 6 26 11 26 5 0 22 9 37 20 19 14 30 16 32 8 2 -6 10 -8 17 -4 8 6 9 11 2
20 -6 7 -8 16 -4 20 4 3 28 -15 55 -41 26 -26 48 -44 48 -39 0 14 -22 51 -47
77 -45 49 -7 102 61 85 44 -11 151 -90 239 -178 94 -93 122 -142 172 -293 13
-42 40 -104 59 -138 19 -34 70 -159 115 -277 44 -118 98 -260 120 -314 23 -55
41 -109 41 -120 0 -12 7 -43 15 -70 39 -129 1 -295 -101 -439 -45 -63 -43 -70
7 -22 76 74 129 213 129 338 0 82 -35 218 -94 372 -103 265 -137 359 -132 372
3 8 1 11 -4 8 -13 -8 -13 1 0 25 8 16 8 18 -5 14 -13 -5 -13 -3 0 22 10 20 11
32 3 41 -7 9 -7 13 0 13 7 0 9 7 5 17 -5 11 -3 14 6 8 10 -5 11 -2 7 13 -5 15
4 33 35 68 55 64 70 103 70 180 0 92 -25 142 -94 188 -54 36 -76 64 -60 75 5
3 6 22 3 41 l-6 35 -12 -40 c-7 -22 -11 -60 -11 -85 1 -25 4 -35 6 -22 3 18 8
21 17 12 8 -5 33 -21 57 -33 63 -34 84 -75 84 -167 0 -49 -6 -85 -16 -103 -17
-31 -151 -189 -156 -184 -1 2 -26 70 -54 152 -70 204 -92 245 -197 353 -50 50
-84 92 -77 92 8 0 17 4 20 10 4 6 -1 7 -12 4 -14 -5 -15 -4 -4 4 8 6 19 8 26
6 6 -3 21 6 34 20 l23 25 -58 -24 c-33 -14 -64 -25 -70 -25 -5 0 -48 19 -95
43 l-84 42 -3 49 c-3 46 -1 52 39 93 51 51 40 58 -14 9 -34 -31 -37 -38 -37
-88 0 -30 -7 -74 -16 -99 -20 -59 -81 -126 -119 -132 -16 -3 -50 -9 -74 -13
-41 -6 -44 -6 -38 12 13 36 -54 -51 -80 -105 -19 -38 -28 -77 -33 -135 -10
-118 -54 -185 -114 -174 l-25 5 16 -38 c14 -35 16 -60 14 -156 0 -20 -8 -37
-21 -46 -11 -7 -17 -17 -14 -20 22 -22 -36 -96 -121 -154 l-35 -24 32 -35 c18
-19 41 -55 51 -80 17 -39 18 -48 6 -72 -7 -15 -14 -45 -14 -68 -1 -35 -10 -52
-64 -117 -35 -43 -78 -86 -96 -97 -43 -26 -95 -24 -118 6 -17 23 -17 25 1 61
16 31 40 99 69 193 4 13 5 13 13 0 8 -13 10 -13 10 1 0 9 -7 19 -15 23 -8 3
-15 9 -14 13 1 4 1 40 0 80 -1 61 -5 76 -27 102 -14 17 -41 38 -60 47 -35 17
-40 28 -25 53 8 12 12 12 25 2 20 -17 20 -13 0 35 -21 51 -14 114 21 165 18
28 25 50 22 67 -3 14 -1 35 3 46 4 12 15 47 24 78 18 63 55 102 106 113 35 8
37 13 13 31 -15 10 -16 16 -6 31 6 10 16 17 22 16 6 -2 8 4 5 12 -9 21 21 89
73 170 54 83 89 115 125 115 15 0 30 5 33 10 3 6 -1 10 -9 10 -9 0 6 20 34 46
27 25 63 67 80 93 33 52 47 61 129 82 45 11 64 25 125 84 39 40 91 86 115 103
83 60 159 34 221 -78 58 -104 66 -110 157 -110 99 0 147 -24 181 -90 20 -39
23 -56 19 -125 -2 -44 -2 -74 0 -67 7 19 21 14 29 -10 13 -42 74 -169 102
-211 103 -160 305 -388 403 -454 30 -21 -9 23 -111 125 -176 177 -265 295
-342 452 -46 94 -52 114 -57 190 -9 134 -57 191 -171 204 -100 12 -133 16
-141 22 -4 2 -27 38 -50 78 -29 51 -54 81 -80 97 -30 19 -39 30 -39 52 0 16 4
26 10 22 6 -3 10 -1 10 5 0 6 5 8 10 5 6 -3 10 -1 10 5 0 6 3 9 8 7 4 -3 8 7
9 21 1 30 -17 48 -29 29 -5 -7 -7 2 -6 20 1 17 5 30 9 27 11 -6 32 24 26 39
-3 7 1 21 9 32 16 22 19 55 4 55 -15 0 -12 56 3 69 8 6 17 8 20 4 4 -3 7 2 7
13 1 16 3 15 15 -6 17 -29 19 -54 5 -45 -5 3 -10 -1 -10 -9 0 -9 6 -13 14 -10
10 4 16 -15 25 -78 16 -112 56 -277 88 -366 14 -40 27 -71 29 -70 1 2 -6 34
-17 73 -51 184 -63 288 -62 540 0 132 2 263 6 290 29 256 62 474 73 484 4 3 4
-10 0 -29 -13 -74 -19 -705 -7 -857 15 -201 66 -502 78 -466 3 7 -3 46 -12 85
-33 144 -46 287 -52 556 -5 215 -3 278 7 297 10 19 16 22 27 14 10 -9 13 -7
14 7 3 43 28 -147 28 -215 1 -40 5 -101 10 -135 6 -33 15 -104 21 -156 6 -52
18 -120 25 -150 7 -30 21 -102 30 -160 24 -156 55 -300 68 -322 7 -11 19 -17
30 -14 9 2 17 0 17 -5 0 -5 6 -9 13 -9 6 0 34 -46 60 -101 27 -55 50 -99 53
-97 2 3 -11 42 -30 89 -88 218 -175 520 -215 744 -43 241 -91 771 -91 994 0
135 2 152 16 147 9 -3 26 -6 39 -6 20 0 23 -6 29 -60 4 -33 10 -60 14 -60 4 0
16 -33 26 -72 10 -40 22 -80 27 -88 16 -29 10 16 -20 140 -16 66 -27 129 -24
139 4 17 58 45 167 87 8 3 19 -16 30 -53 36 -117 121 -322 207 -500 48 -101
90 -183 93 -183 6 0 -17 69 -33 98 -13 25 -93 301 -125 432 -27 112 -46 230
-39 243 2 4 25 7 51 7 58 0 133 26 173 60 23 19 32 36 36 70 7 54 15 66 66 92
49 24 45 30 96 -127 70 -211 95 -361 111 -662 8 -143 17 -216 34 -285 42 -164
149 -381 223 -453 20 -19 33 -35 28 -35 -18 0 -107 75 -146 123 -59 73 -63 76
-46 41 19 -36 147 -159 176 -169 12 -3 21 -12 21 -20 0 -13 -60 -72 -104 -101
-44 -28 -20 -28 28 0 93 54 177 194 217 361 39 160 28 384 -28 588 -9 31 -18
55 -20 53 -2 -2 6 -41 18 -87 12 -46 23 -115 24 -154 1 -38 6 -109 10 -156 13
-150 -40 -371 -111 -464 -15 -19 -17 -19 -64 32 -53 58 -154 247 -188 353 -43
134 -51 187 -61 410 -11 245 -29 390 -66 527 -20 76 -24 108 -12 92 82 -102
198 -257 242 -325 32 -49 63 -93 68 -99 16 -15 -42 84 -77 135 -18 25 -35 52
-38 60 -3 8 -32 47 -64 85 -92 109 -119 146 -154 207 -35 64 -35 64 41 71 l45
4 115 -183 c63 -101 118 -184 122 -184 5 0 0 15 -11 33 -52 84 -192 337 -192
345 0 5 19 22 43 39 l43 31 37 -56 c21 -32 49 -70 64 -87 l26 -30 -19 30 c-59
97 -84 140 -84 146 0 4 26 13 58 19 61 13 92 26 92 39 0 4 -43 68 -96 140 -52
73 -94 134 -92 135 2 2 42 24 89 49 47 26 91 53 98 61 9 11 2 28 -35 82 -53
79 -147 201 -247 324 -38 46 -76 98 -84 115 -14 30 -14 33 26 92 49 74 67 111
58 120 -9 8 -4 14 -68 -87 -71 -113 -188 -252 -255 -301 -29 -21 -72 -64 -95
-94 -50 -67 -160 -161 -254 -220 -91 -56 -115 -63 -115 -36 0 22 -57 121 -141
247 -64 95 -223 406 -243 473 -23 78 -21 134 5 157 16 14 23 16 26 6 4 -9 12
-7 31 6 15 10 32 22 39 25 7 5 22 -14 40 -50 28 -56 152 -193 175 -193 7 0 -4
15 -24 34 -49 47 -67 76 -82 133 -16 65 -15 76 11 89 13 6 20 14 15 19 -18 20
124 -63 159 -94 46 -38 57 -36 35 7 -21 40 -75 81 -166 127 -41 20 -77 39 -78
40 -2 2 8 21 22 42 14 20 26 43 26 50 0 23 34 30 171 37 142 7 307 -9 419 -39
66 -18 63 -17 55 -5 -18 29 -257 68 -428 71 -59 1 -107 5 -107 10 0 5 -8 9
-17 9 -15 0 -16 2 -3 10 12 8 12 10 -5 10 -17 0 -17 2 -5 10 22 14 -22 13 -72
-2 -26 -8 -42 -8 -49 -1 -7 7 7 17 43 33 117 51 184 70 286 81 59 6 109 13
112 16 3 3 -47 3 -110 0 -125 -6 -206 -27 -298 -77 l-53 -29 -11 23 c-7 18 -6
38 6 78 12 44 23 60 53 80 42 28 124 62 192 78 23 6 41 14 38 16 -13 13 -158
-35 -249 -84 -3 -2 0 21 8 50 19 71 30 203 17 211 -6 4 -13 -23 -16 -71 -4
-51 -19 -115 -45 -188 -39 -111 -39 -112 -63 -98 -13 7 -28 13 -34 13 -5 0 2
-6 16 -14 16 -9 50 -54 83 -110 54 -93 55 -97 41 -124 -28 -55 -227 -223 -277
-235 -24 -5 -34 2 -97 76 -86 101 -106 136 -97 171 11 46 133 159 215 200 72
36 78 51 8 22 l-35 -14 -17 92 c-9 51 -23 106 -30 122 -12 27 -13 21 -8 -66 4
-65 2 -98 -5 -103 -12 -7 -82 81 -129 162 -14 24 -27 41 -29 39 -2 -2 30 -68
70 -147 59 -112 72 -145 62 -154 -7 -6 -40 -37 -73 -69 -70 -68 -61 -69 -178
17 -38 29 -108 74 -155 101 -92 53 -150 95 -275 200 -86 72 -169 125 -197 125
-35 0 -17 36 55 111 132 138 276 241 410 293 51 20 99 41 107 46 27 18 -11 10
-55 -11z m-222 -687 c-2 -7 0 -11 5 -9 4 1 8 -1 10 -5 5 -18 1 -28 -13 -28 -8
0 -15 5 -15 10 0 6 -7 10 -16 10 -20 0 -48 27 -33 32 25 8 64 2 62 -10z
m-3656 -78 c102 -70 158 -151 142 -207 -11 -38 -148 -182 -174 -183 -11 0 -43
21 -71 46 -28 25 -90 70 -137 100 -48 30 -89 61 -92 68 -6 15 179 219 204 225
28 6 74 -12 128 -49z m3791 -3 c54 -34 64 -44 35 -35 -14 4 -13 2 2 -7 11 -7
22 -15 25 -18 3 -3 31 -25 63 -49 31 -23 57 -48 57 -54 0 -7 -4 -7 -14 1 -7 6
-20 9 -28 6 -8 -3 -23 3 -33 15 -23 25 -31 25 -31 0 0 -22 12 -27 19 -7 4 9 6
9 6 0 1 -6 -3 -14 -8 -17 -11 -7 -93 28 -86 36 3 3 -5 4 -17 2 -13 -2 -32 3
-42 11 -20 15 -20 15 0 29 18 14 18 15 2 21 -10 4 -15 11 -12 16 3 5 0 9 -6 9
-6 0 -8 5 -5 10 3 6 -3 10 -15 10 -20 0 -20 1 -6 16 9 8 14 20 11 25 -4 5 2 6
12 3 13 -4 11 0 -7 16 l-25 22 25 -14 c14 -9 49 -30 78 -47z m-83 -61 c-3 -5
1 -10 11 -10 13 0 14 -3 4 -15 -7 -8 -18 -15 -24 -15 -6 0 -5 4 3 9 10 7 10
10 1 16 -7 4 -16 1 -21 -6 -10 -16 -12 -8 -3 15 3 9 13 16 21 16 8 0 11 -4 8
-10z m-21 -88 c3 -5 -1 -9 -9 -9 -8 0 -13 3 -10 5 3 3 -3 11 -13 19 -15 13
-15 13 5 3 12 -5 24 -14 27 -18z m266 -22 c0 -5 -2 -10 -4 -10 -3 0 -8 5 -11
10 -3 6 -1 10 4 10 6 0 11 -4 11 -10z m101 -47 c18 -20 27 -32 18 -25 -9 6
-20 8 -24 4 -5 -4 -4 -1 0 7 6 11 4 13 -9 8 -14 -5 -17 -3 -12 8 3 8 1 15 -4
15 -6 0 -10 5 -10 10 0 15 3 13 41 -27z m-3837 -62 c3 -5 -5 -28 -18 -50 l-23
-42 -32 30 c-35 33 -38 46 -13 60 21 13 79 14 86 2z m-118 -62 c4 -7 7 -25 6
-40 -1 -28 17 -54 19 -27 0 7 4 3 9 -9 7 -18 -2 -46 -45 -135 -49 -103 -54
-110 -54 -76 -1 35 26 261 34 286 5 15 22 16 31 1z m4113 -48 c20 -25 29 -46
26 -60 -3 -18 -2 -21 10 -11 10 8 15 8 21 -1 4 -8 3 -9 -4 -5 -15 9 -15 1 0
-24 9 -13 9 -23 2 -30 -7 -7 -24 4 -54 35 -46 47 -47 58 -6 58 22 0 23 1 10
14 -12 13 -16 12 -31 -2 -16 -16 -17 -16 -30 1 -23 31 -15 59 19 63 3 1 20
-16 37 -38z m-4193 -48 c-10 -10 -19 5 -10 18 6 11 8 11 12 0 2 -7 1 -15 -2
-18z m4314 -108 c2 11 6 -32 10 -95 12 -181 77 -436 147 -573 13 -27 42 -68
64 -92 21 -23 39 -46 39 -50 0 -4 -46 -5 -101 -3 -91 3 -103 6 -120 27 -57 70
-88 420 -64 716 6 79 11 102 16 80 5 -22 7 -25 9 -10z m-4325 -102 c-1 -92 -6
-118 -28 -173 l-27 -65 3 140 c3 101 8 151 20 178 9 21 20 36 25 33 5 -3 8
-54 7 -113z m4196 85 c-10 -11 -11 -9 -5 6 6 15 4 17 -6 11 -9 -6 -11 -4 -5 4
5 9 10 10 18 2 8 -8 7 -14 -2 -23z m-4320 -74 c-43 -168 -124 -355 -212 -489
-73 -112 -86 -110 -69 11 11 83 29 130 48 126 7 -1 11 1 10 5 -1 5 3 18 10 31
7 12 10 27 7 32 -3 6 0 10 8 10 10 0 13 7 10 20 -3 12 0 20 6 20 7 0 9 -4 6
-10 -3 -5 -3 -10 0 -10 8 0 20 12 59 60 22 27 27 30 22 13 -6 -19 -4 -22 9
-17 12 5 15 14 10 33 -4 19 -3 22 5 11 8 -12 10 -11 10 7 0 12 5 25 11 29 8 4
7 9 -2 15 -11 7 -11 9 1 9 10 0 16 10 18 28 1 21 0 23 -8 12 -11 -17 -13 -10
-4 14 3 9 10 14 14 11 5 -3 6 4 3 15 -3 11 0 26 6 33 6 8 7 18 3 22 -4 5 -1 4
7 0 11 -6 13 -4 8 9 -4 10 -3 15 3 11 6 -3 10 2 10 11 0 10 2 15 6 12 3 -3 -4
-41 -15 -84z m-155 -171 c-14 -20 -23 -39 -20 -42 3 -3 9 1 14 9 6 9 10 10 10
3 0 -18 -20 -27 -32 -15 -8 8 -3 21 16 47 36 46 44 45 12 -2z m5789 -63 c111
-125 315 -403 315 -429 0 -6 -5 -11 -11 -11 -11 0 -156 -77 -256 -136 -23 -14
-65 -28 -93 -31 -30 -3 -65 -16 -83 -29 -18 -13 -50 -36 -72 -51 -22 -15 -77
-56 -122 -90 -95 -74 -83 -80 -139 74 -33 90 -42 163 -20 163 5 0 7 3 4 6 -3
3 13 23 36 44 39 36 58 80 34 80 -6 0 -9 3 -5 6 3 3 -5 18 -19 32 l-24 27 62
62 c54 55 64 61 72 45 5 -9 12 -19 16 -22 4 -3 15 -19 25 -37 10 -18 22 -30
27 -27 5 3 8 2 7 -3 -6 -33 3 -53 27 -59 34 -9 70 9 88 43 15 30 16 179 1 274
-6 41 -4 50 26 93 18 25 36 45 39 44 4 -2 33 -32 65 -68z m-6530 -92 c9 -32
15 -92 15 -158 0 -94 2 -109 20 -125 11 -10 20 -14 20 -9 0 5 5 2 10 -6 8 -12
16 -8 48 23 24 24 47 37 64 37 15 0 30 5 33 10 4 6 12 8 18 4 7 -3 1 3 -13 14
-14 12 -22 24 -18 27 3 4 16 -3 27 -14 16 -16 21 -34 21 -78 0 -52 -5 -65 -62
-160 -35 -57 -67 -103 -73 -103 -5 0 -20 15 -32 33 -38 55 -104 117 -183 170
-89 60 -210 158 -210 169 0 5 57 67 126 138 l127 130 23 -25 c13 -14 30 -49
39 -77z m875 80 c0 -7 -12 -62 -26 -123 -71 -310 -96 -425 -124 -585 -17 -96
-33 -178 -36 -181 -8 -13 -97 21 -173 65 -42 24 -117 56 -168 71 -58 18 -105
39 -128 58 -35 29 -37 32 -30 76 8 56 57 183 91 234 l25 38 49 -39 c40 -32 61
-41 107 -46 32 -4 73 -10 91 -13 29 -5 38 0 97 62 56 58 64 69 53 83 -9 10 -9
13 -1 9 6 -4 18 1 26 13 7 11 17 17 22 12 5 -4 5 -2 1 5 -4 7 2 30 14 52 11
22 19 44 18 48 -2 5 3 23 11 41 10 24 16 30 22 20 14 -21 30 11 23 45 -3 16
-1 27 5 27 6 0 10 3 10 8 -3 18 2 32 11 32 6 0 10 -6 10 -12z m5193 -351 c3
-7 -3 -13 -14 -13 -13 0 -15 3 -7 13 6 7 12 13 13 13 2 0 5 -6 8 -13z m-2253
-38 c-64 -11 -120 -11 -120 1 0 6 33 9 83 9 74 -1 77 -2 37 -10z m57 -64 c36
-144 60 -532 35 -557 -13 -13 -32 -1 -32 19 0 23 -73 272 -126 431 -24 73 -44
136 -44 142 0 5 26 11 58 13 98 6 96 7 109 -48z m-3956 -8 c59 -39 119 -93
119 -108 0 -8 -15 -13 -33 -10 -5 1 -5 -4 -1 -10 5 -9 -1 -10 -21 -5 -23 6
-26 4 -21 -9 4 -11 2 -14 -6 -9 -7 5 -9 0 -6 -14 4 -12 3 -20 -2 -17 -4 3 -10
-6 -12 -20 -5 -22 -3 -24 11 -13 9 7 21 17 26 23 6 5 25 23 42 39 l31 28 37
-41 c21 -23 44 -41 52 -41 28 0 9 -74 -29 -119 -34 -40 -47 -81 -25 -81 7 0
26 9 42 20 17 11 37 20 46 20 8 0 28 14 45 31 26 28 33 30 69 24 22 -4 49 -8
60 -10 29 -3 30 -28 1 -103 -14 -37 -26 -77 -26 -90 0 -22 -14 -30 -24 -13 -3
5 -30 15 -58 21 -131 31 -192 68 -181 109 6 24 -40 77 -87 101 -21 11 -55 18
-77 17 -42 -1 -77 21 -183 116 l-53 48 29 32 c110 123 125 135 154 127 15 -4
52 -24 81 -43z m4009 -6 c16 -33 47 -104 69 -158 40 -100 135 -393 129 -397
-2 -1 -46 0 -99 2 l-97 4 5 56 c7 80 -21 428 -43 525 -9 43 3 32 36 -32z
m1415 -89 c-2 -2 1 -15 6 -29 5 -13 5 -31 1 -39 -6 -11 -13 1 -24 40 -14 52
-14 54 3 43 10 -6 16 -13 14 -15z m1354 -34 c19 -29 63 -93 98 -141 38 -54 58
-89 50 -91 -6 -2 -43 -12 -80 -21 -40 -10 -92 -33 -125 -56 -75 -49 -103 -56
-149 -34 -31 15 -42 16 -77 5 -49 -15 -137 -71 -130 -82 3 -5 1 -30 -6 -57
-10 -43 -16 -50 -58 -71 -30 -15 -72 -24 -117 -28 -62 -4 -72 -2 -89 17 -11
11 -26 21 -33 21 -26 0 -7 25 28 37 22 8 27 12 14 12 -11 1 -34 -8 -51 -18
-25 -15 -34 -29 -39 -61 -4 -26 -15 -46 -29 -55 -25 -16 -216 -89 -220 -83 -1
1 -13 65 -27 140 l-25 137 90 54 c98 58 128 67 314 95 l122 19 11 -41 c29
-113 41 -148 64 -173 13 -15 25 -22 25 -15 0 6 -4 12 -10 12 -14 0 -50 125
-57 197 -6 62 -5 63 29 95 19 18 58 45 87 60 l51 27 36 -37 35 -37 -20 42
c-12 23 -21 49 -21 57 0 23 38 43 103 55 32 6 82 24 110 40 29 16 54 29 57 30
3 0 21 -23 39 -51z m-1088 27 c26 -4 52 -21 92 -60 31 -30 60 -55 64 -55 4 0
34 -4 65 -9 65 -11 112 -2 152 30 15 12 29 20 30 18 2 -2 11 -31 21 -64 9 -33
26 -76 36 -97 11 -21 16 -38 12 -38 -5 0 -60 -9 -123 -20 -119 -20 -127 -24
-323 -129 -70 -38 -98 -49 -102 -39 -12 35 -65 363 -65 402 0 55 28 79 85 70
11 -1 36 -5 56 -9z m-1173 -125 c18 -74 53 -288 66 -398 l12 -103 -25 6 c-14
4 -44 16 -66 29 -46 25 -44 13 -27 193 7 67 12 170 12 229 0 111 9 125 28 44z
m994 -185 c-16 -57 -32 -64 -32 -13 0 34 31 93 41 77 3 -6 -1 -35 -9 -64z
m-5032 10 c-16 -19 -7 -28 29 -31 44 -3 93 -15 124 -30 20 -11 27 -11 27 -3 0
7 2 10 4 8 3 -2 -4 -45 -13 -94 -13 -67 -22 -89 -32 -86 -111 31 -143 43 -177
66 -41 27 -46 51 -16 75 7 7 20 34 29 61 9 27 21 49 27 49 6 0 5 -6 -2 -15z
m4206 -219 l7 -129 -29 7 c-16 4 -30 9 -31 10 -1 1 4 42 12 91 8 50 15 119 16
155 1 58 2 61 10 30 4 -19 11 -93 15 -164z m-3886 154 c0 -5 -12 -10 -27 -9
-25 0 -26 1 -8 9 27 12 35 12 35 0z m-13 -42 c-3 -8 -6 -5 -6 6 -1 11 2 17 5
13 3 -3 4 -12 1 -19z m-504 -15 c15 -3 29 -9 32 -13 12 -20 -27 -103 -82 -171
-33 -41 -97 -128 -142 -193 -44 -66 -81 -116 -81 -112 0 42 88 294 137 391 55
111 61 118 87 110 12 -4 33 -9 49 -12z m90 -34 c7 -5 27 -19 45 -30 37 -22 48
-41 37 -66 -4 -10 -7 -42 -5 -72 2 -76 -18 -252 -40 -341 -10 -41 -39 -123
-64 -182 -25 -60 -47 -113 -48 -120 0 -7 -6 48 -13 122 l-12 135 0 -145 c0
-130 -3 -151 -24 -200 -34 -79 -82 -160 -95 -160 -35 0 -125 143 -160 257 -21
67 -25 97 -23 165 4 82 5 84 64 178 70 112 182 272 226 320 l30 35 -5 -45
c-18 -149 -27 -273 -24 -325 2 -49 5 -37 15 70 12 142 62 415 76 415 4 0 13
-5 20 -11z m314 -11 c-3 -8 -6 -5 -6 6 -1 11 2 17 5 13 3 -3 4 -12 1 -19z m70
-130 c-3 -8 -6 -5 -6 6 -1 11 2 17 5 13 3 -3 4 -12 1 -19z m-10 -65 c-3 -10
-5 -4 -5 12 0 17 2 24 5 18 2 -7 2 -21 0 -30z m3508 -13 c32 -12 65 -66 65
-107 0 -22 -10 -44 -31 -68 -55 -63 -134 -42 -180 47 -22 44 -19 70 15 107 37
41 66 46 131 21z m435 -61 c0 -73 -2 -80 -16 -68 -25 21 -90 119 -70 107 2 -2
12 4 22 13 11 10 28 19 39 22 11 2 21 5 23 6 1 0 2 -36 2 -80z m-756 5 c31
-12 17 -56 -21 -68 -31 -10 -48 23 -27 52 16 23 23 26 48 16z m1506 -199 c0
-35 -4 -66 -8 -69 -11 -6 -26 6 -30 23 -3 12 -1 12 14 0 16 -13 16 -12 5 10
-7 13 -8 21 -3 17 7 -4 9 12 8 44 -2 27 1 47 5 44 5 -3 9 -34 9 -69z m-1256
19 c3 -9 6 -27 6 -41 0 -21 -2 -24 -15 -13 -8 7 -15 25 -15 41 0 31 14 39 24
13z m-3259 -286 c89 -240 124 -398 132 -590 3 -76 3 -138 0 -138 -4 0 -18 21
-31 48 -13 26 -45 81 -70 122 -25 41 -46 78 -46 82 0 5 -22 43 -50 86 -52 80
-58 96 -38 108 7 5 9 2 6 -8 -4 -8 -2 -21 4 -29 8 -11 9 -10 4 4 -3 9 0 17 5
17 7 0 9 -11 7 -25 -6 -29 20 -64 41 -57 10 3 12 0 8 -12 -4 -9 -3 -15 2 -12
25 16 -2 340 -44 526 -31 138 -15 111 70 -122z m3338 135 c-7 -2 -19 -2 -25 0
-7 3 -2 5 12 5 14 0 19 -2 13 -5z m-129 -9 c24 -9 19 -41 -8 -59 -22 -15 -27
-15 -55 -1 -30 16 -44 31 -47 54 -2 13 80 18 110 6z m-4164 -178 c23 -91 75
-193 129 -256 l39 -45 -37 -52 c-20 -29 -39 -53 -44 -53 -14 0 -97 122 -107
158 -5 20 -17 72 -26 115 -16 76 -14 103 13 200 7 27 11 19 33 -67z m5460 -6
c-13 -24 -16 -25 -24 -4 -3 8 -2 12 3 9 5 -3 12 -1 16 5 11 19 16 10 5 -10z
m-4613 -77 c-2 -16 -4 -5 -4 22 0 28 2 40 4 28 2 -13 2 -35 0 -50z m650 47
c39 -35 46 -82 40 -249 -3 -86 -12 -194 -21 -241 -40 -229 -58 -373 -51 -418
4 -26 9 -64 10 -86 4 -55 23 -117 45 -145 17 -24 18 -24 45 -7 14 9 41 38 58
64 86 126 183 197 285 208 37 4 57 0 92 -18 69 -35 65 -50 -41 -154 -156 -152
-262 -306 -334 -489 -45 -114 -63 -142 -107 -173 -63 -42 -121 -62 -182 -62
-123 0 -146 -17 -226 -174 -65 -127 -85 -143 -152 -119 -24 9 -56 17 -72 19
-35 5 -120 51 -158 85 -36 34 -40 82 -5 74 33 -8 121 -13 131 -7 5 3 -4 11
-20 18 -20 9 -24 13 -11 13 32 2 57 -18 58 -47 1 -15 5 -38 10 -52 6 -18 7 -8
6 38 -2 52 1 63 16 68 35 11 15 21 -53 27 -138 12 -167 43 -261 282 -79 200
-92 248 -80 292 18 63 104 189 149 214 31 18 41 32 50 66 16 58 76 103 138
103 l43 0 -9 31 c-14 48 -88 195 -186 369 -101 180 -154 290 -154 320 0 29 44
70 75 70 37 0 74 -22 121 -72 84 -89 208 -287 320 -510 90 -180 126 -211 167
-146 8 13 31 124 51 248 76 476 87 522 123 562 21 24 64 23 90 -2z m-593 -66
c3 -8 2 -12 -4 -9 -6 3 -10 10 -10 16 0 14 7 11 14 -7z m-49 -67 c-4 -6 0 -4
9 6 13 17 14 15 13 -27 -2 -40 -4 -44 -14 -29 -7 9 -13 11 -13 5 0 -7 -5 -12
-11 -12 -6 0 -9 18 -5 48 6 61 5 60 17 39 5 -9 7 -23 4 -30z m42 -49 c-3 -8
-6 -5 -6 6 -1 11 2 17 5 13 3 -3 4 -12 1 -19z m834 5 c13 -16 12 -17 -3 -4
-17 13 -22 21 -14 21 2 0 10 -8 17 -17z m297 -497 c7 -16 10 -31 8 -34 -9 -8
-108 42 -121 62 -24 33 -19 35 43 18 50 -13 61 -20 70 -46z m3335 -71 c4 -38
9 -80 13 -93 6 -21 4 -23 -22 -20 -25 3 -30 8 -36 43 -4 22 -7 63 -7 90 -1 46
1 50 23 50 22 0 24 -5 29 -70z m-899 -251 c13 -12 15 -30 10 -92 -7 -91 -26
-142 -51 -143 -10 0 -13 -3 -6 -6 10 -3 9 -12 -3 -36 -38 -73 -138 -207 -155
-207 -16 0 -29 66 -23 119 8 66 31 115 73 155 25 24 34 28 53 19 25 -11 68 4
68 24 0 19 -22 63 -32 63 -4 0 -8 9 -8 20 0 11 -4 20 -9 20 -17 0 -81 -67 -81
-85 0 -17 -46 -105 -55 -105 -11 0 -35 63 -39 102 -2 23 -6 50 -9 58 -2 8 -2
12 0 7 8 -14 22 4 16 20 -5 12 -3 14 8 8 12 -7 12 -6 1 7 -11 14 -10 19 12 33
26 18 48 12 90 -24 16 -14 20 -14 24 -2 17 51 85 77 116 45z m-2397 -171 c37
-76 105 -194 150 -263 l84 -125 -77 80 c-88 92 -156 175 -238 292 l-57 82 33
35 c18 20 34 36 35 36 1 0 32 -62 70 -137z m359 53 c127 -71 138 -79 156 -115
l17 -35 -39 -33 c-21 -19 -42 -42 -45 -53 -9 -29 -36 -24 -69 12 -17 20 -22
23 -12 8 47 -72 49 -83 26 -123 -12 -20 -26 -37 -32 -37 -5 0 -8 -6 -5 -12 2
-7 0 -21 -4 -30 -9 -16 -12 -16 -44 3 -19 11 -42 19 -52 17 -13 -3 -3 -12 33
-31 45 -23 51 -30 50 -55 -1 -39 -21 -29 -70 35 -20 27 -52 68 -71 93 -56 71
-120 183 -107 188 15 5 15 42 1 62 -8 12 -9 10 -4 -7 10 -35 -13 -36 -35 -1
-25 42 -26 62 -1 55 15 -4 18 1 17 32 -1 36 -1 36 39 35 22 -1 52 -5 68 -9 22
-6 31 -3 48 19 11 14 28 26 38 26 10 0 53 -20 97 -44z m1984 -37 c0 -22 -25
-26 -33 -5 -6 16 12 38 25 30 4 -3 8 -14 8 -25z m-2487 -69 c45 -233 159 -506
284 -680 21 -28 23 -29 -97 49 -154 99 -245 211 -336 409 l-37 83 18 32 c22
39 138 196 145 196 3 1 13 -40 23 -89z m-2103 50 c0 -5 -2 -10 -4 -10 -3 0 -8
5 -11 10 -3 6 -1 10 4 10 6 0 11 -4 11 -10z m-15 -67 c-3 -27 -9 -59 -12 -73
-5 -22 -7 -20 -18 20 -12 44 -13 44 -23 20 -6 -14 -11 -19 -11 -12 -2 27 29
71 44 65 9 -3 15 -2 14 3 -2 14 0 24 7 24 3 0 2 -21 -1 -47z m2915 -83 c0 -18
-50 -70 -67 -70 -22 0 -36 -30 -25 -54 8 -18 6 -29 -10 -54 -11 -18 -28 -32
-38 -32 -22 0 -30 -41 -16 -82 11 -29 -7 -76 -31 -85 -22 -9 -68 21 -69 45 -1
13 -6 28 -13 35 -23 23 -11 56 39 106 28 28 50 55 50 60 0 5 -10 17 -22 25
l-22 16 29 30 c16 16 39 30 51 30 29 0 39 16 24 35 -12 15 -9 17 50 37 21 7
70 -23 70 -42z m-617 -48 c85 -103 212 -227 260 -254 38 -22 44 -32 27 -43 -5
-3 -14 -24 -20 -45 -13 -48 -48 -87 -75 -83 -20 3 -20 3 0 -6 44 -19 47 -32
28 -133 l-17 -94 -63 -19 c-52 -14 -69 -25 -96 -58 -31 -40 -32 -46 -37 -152
-3 -60 -2 -121 2 -135 4 -14 22 -72 39 -129 l31 -105 -34 -29 c-18 -16 -48
-36 -65 -43 -18 -8 -33 -17 -33 -20 0 -14 68 11 101 36 l36 29 6 -117 c3 -64
7 -126 9 -136 2 -15 -9 -23 -59 -39 -35 -11 -63 -23 -63 -27 0 -5 21 -2 47 6
59 18 66 18 93 -4 l22 -18 -97 -122 -98 -123 -24 41 c-17 28 -24 52 -22 79 2
26 -3 46 -18 64 -22 29 -38 157 -27 218 9 45 32 89 47 90 6 0 22 13 35 29 l23
29 -38 24 c-53 34 -114 103 -107 122 4 10 2 13 -8 10 -9 -4 -23 13 -41 48 -37
73 -38 158 -3 206 l24 33 -19 45 c-27 64 -24 89 13 124 18 16 35 29 39 29 20
0 16 35 -6 62 -14 16 -23 34 -19 39 3 5 -4 9 -15 9 -25 0 -41 51 -41 133 0 58
20 107 44 107 6 0 36 -25 66 -55 30 -31 105 -88 165 -127 61 -39 124 -80 140
-91 l30 -21 -19 29 c-10 17 -31 46 -46 65 -63 82 -171 302 -187 380 -5 27 -3
30 20 30 13 0 31 7 38 16 15 18 11 22 -50 56 -25 14 -31 23 -31 52 0 39 8 66
20 66 5 0 37 -35 73 -78z m-363 -113 c14 -96 15 -360 2 -409 -9 -32 -10 -28
-11 35 -1 39 -13 120 -27 180 -38 165 -40 185 -15 233 12 23 25 42 30 42 5 0
14 -36 21 -81z m-1206 49 c9 -34 8 -35 -15 -41 -18 -5 -20 -2 -15 16 3 12 6
28 6 35 0 21 17 13 24 -10z m1506 -29 c0 -5 -7 -9 -15 -9 -8 0 -15 7 -15 15 0
9 6 12 15 9 8 -4 15 -10 15 -15z m-1549 -129 c7 -22 10 -42 7 -45 -2 -3 -26
-8 -52 -11 l-48 -7 33 51 c19 29 37 52 41 52 4 0 13 -18 19 -40z m3990 -73
c-6 -8 -7 -18 -3 -22 4 -5 1 -5 -5 -1 -8 4 -13 1 -13 -9 0 -9 -4 -14 -9 -11
-5 3 -15 -2 -22 -11 -12 -14 -12 -16 1 -8 8 5 22 10 31 10 13 1 11 -8 -12 -51
-15 -29 -33 -79 -39 -111 -7 -32 -24 -94 -40 -138 -15 -44 -35 -114 -45 -156
l-16 -76 -62 19 c-33 10 -62 20 -64 22 -5 5 41 133 83 232 44 102 88 174 107
174 6 0 25 12 41 26 22 20 26 28 16 34 -7 4 -20 6 -29 3 -9 -3 7 15 34 40 50
46 67 58 46 34z m-2021 -22 c7 -8 18 -15 26 -15 7 0 16 -4 19 -10 4 -6 -1 -7
-12 -4 -12 4 -9 -2 10 -20 32 -29 35 -64 9 -97 -14 -16 -18 -33 -14 -62 4 -38
-14 -127 -29 -137 -4 -3 -36 -4 -70 -2 l-64 3 2 47 c1 26 7 65 12 87 6 22 12
51 13 65 2 14 12 29 25 34 17 8 20 16 16 42 -11 69 23 110 57 69z m-1040 -133
c0 -8 -74 -138 -88 -154 -20 -23 -132 -59 -190 -61 -42 -2 -47 0 -44 18 6 34
58 139 86 173 l28 32 104 -2 c57 -2 104 -5 104 -6z m1245 -58 c28 -13 64 -37
80 -54 l28 -30 -18 -33 c-11 -21 -16 -47 -13 -71 3 -27 1 -35 -9 -32 -15 6
-158 43 -197 51 l-28 6 6 62 c4 34 14 86 22 115 l16 53 31 -21 c18 -12 55 -32
82 -46z m-855 -20 c0 -8 3 -13 8 -11 13 8 6 -47 -11 -83 -9 -20 -12 -39 -7
-45 5 -6 5 -17 0 -25 -10 -16 -12 -15 -28 15 -6 11 -12 14 -12 7 0 -7 -4 -11
-10 -7 -5 3 -6 13 -3 23 8 22 -1 13 -17 -17 -10 -19 -10 -22 1 -16 9 6 10 3 5
-10 -6 -18 -6 -18 15 1 18 15 21 16 17 3 -8 -21 29 -20 42 1 13 21 12 3 -1
-22 -9 -17 -9 -20 4 -15 11 4 13 0 10 -14 -3 -11 0 -39 8 -61 10 -32 10 -44 0
-60 -7 -11 -10 -23 -7 -26 3 -3 6 1 6 8 0 7 2 11 4 9 3 -2 -4 -28 -14 -58 -9
-29 -20 -47 -23 -40 -4 9 -6 8 -6 -5 -1 -16 -6 -14 -33 13 -33 33 -50 82 -19
58 14 -11 14 -10 0 12 -9 14 -22 27 -30 29 -11 3 -11 1 1 -7 13 -10 13 -11 0
-11 -21 1 -51 25 -42 36 4 4 0 3 -9 -4 -20 -15 -40 -8 -57 18 -9 15 -9 32 1
77 7 32 12 72 12 89 -1 21 6 36 22 47 13 10 23 13 23 7 0 -6 5 -8 10 -5 6 3
10 -3 10 -15 0 -12 -4 -19 -8 -16 -4 2 -9 -9 -10 -25 -1 -16 0 -29 2 -29 14 0
31 52 37 110 l6 65 1 -67 c1 -37 -2 -69 -7 -72 -5 -3 -11 -15 -14 -26 -8 -30
10 -15 37 33 19 32 46 130 46 164 0 2 9 -1 20 -7 11 -6 20 -18 20 -26z m28
-99 c0 -13 -4 -22 -9 -19 -5 3 -9 -2 -9 -11 0 -9 -4 -14 -10 -10 -11 7 9 59
26 65 1 0 2 -11 2 -25z m694 -76 c161 -22 372 -126 447 -219 l30 -38 -34 -36
c-19 -20 -40 -56 -47 -79 -6 -23 -12 -43 -13 -45 -1 -1 -29 11 -61 27 -63 31
-127 51 -159 50 -17 0 -16 -2 5 -10 19 -8 21 -12 11 -19 -10 -6 9 -20 67 -49
76 -38 103 -66 87 -91 -8 -14 -68 -30 -165 -44 l-85 -12 92 -8 c50 -4 112 -4
136 -1 l45 7 31 -94 c17 -51 31 -105 31 -120 0 -31 -27 -49 -150 -98 -173 -68
-390 -191 -390 -221 0 -21 -40 -7 -60 21 -32 44 -106 208 -119 262 -13 54 -15
170 -3 150 12 -18 33 -7 59 30 16 23 19 35 12 45 -6 7 -14 12 -17 11 -4 0 -18
0 -32 1 -23 1 -28 10 -63 130 -22 73 -43 173 -49 230 -10 90 -9 105 7 140 27
60 48 74 133 87 77 12 130 11 254 -7z m-2285 -26 c-7 -55 -27 -125 -38 -139
-14 -17 -48 -5 -66 22 -18 28 -11 105 13 124 12 11 57 25 88 29 4 1 6 -16 3
-36z m1353 -112 c0 -4 41 -62 91 -127 51 -66 103 -143 116 -172 14 -29 29 -50
34 -46 14 8 41 -65 35 -92 -6 -22 -12 -24 -62 -24 -45 0 -55 3 -51 14 7 16 8
17 -74 -9 -63 -20 -81 -17 -104 19 -16 25 -16 27 13 63 44 57 52 77 59 146 8
92 -12 129 -106 194 -6 4 31 43 41 43 4 0 8 -4 8 -9z m2600 -31 c223 -55 245
-76 236 -225 -6 -103 -40 -211 -100 -316 -49 -87 -81 -125 -91 -109 -5 9 -4
11 3 6 7 -4 12 -5 12 -2 0 2 3 13 6 23 4 14 4 15 -4 4 -12 -17 -32 -6 -32 19
0 10 -5 22 -12 26 -7 5 -8 3 -3 -6 11 -17 -16 -32 -33 -18 -10 9 -15 9 -21 -1
-6 -10 -10 -9 -14 4 -4 9 -3 13 2 10 5 -3 13 0 16 5 5 7 12 5 22 -7 8 -10 12
-12 8 -5 -4 7 -2 19 4 26 9 10 8 15 -3 19 -11 4 -13 1 -9 -11 6 -15 5 -15 -10
-3 -15 12 -17 11 -17 -2 0 -11 -6 -14 -16 -10 -12 4 -14 0 -8 -22 5 -20 4 -26
-4 -21 -8 5 -9 1 -4 -11 12 -29 51 -95 77 -132 29 -39 31 -58 10 -108 -30 -72
-212 -293 -242 -293 -6 0 -13 11 -17 24 -8 32 -129 145 -271 251 -196 147
-255 201 -255 235 0 28 72 174 91 186 6 3 33 -4 60 -15 58 -25 171 -33 190
-13 10 10 0 12 -54 12 -59 0 -71 3 -93 25 -14 14 -36 33 -50 41 -28 19 -31 45
-6 67 23 21 112 40 162 35 l39 -3 -22 23 c-20 22 -27 24 -97 18 -41 -3 -87 -8
-102 -12 -26 -6 -28 -4 -28 22 0 16 -9 48 -20 71 -16 36 -17 45 -5 56 67 67
265 141 420 155 117 12 182 7 285 -18z m-2528 -4 c7 4 8 2 4 -4 -4 -7 0 -12
11 -13 11 0 13 -3 5 -6 -15 -6 -42 14 -41 31 0 7 2 6 6 -2 2 -6 10 -9 15 -6z
m-1461 -56 c2 -24 2 -24 6 -2 l4 23 34 -29 c18 -16 60 -40 94 -53 34 -13 61
-28 61 -33 0 -4 -6 -6 -12 -3 -37 13 -62 18 -49 8 12 -8 13 -12 1 -25 -7 -9
-15 -14 -18 -11 -3 3 -11 0 -19 -7 -7 -6 -16 -9 -19 -6 -2 3 10 12 27 21 31
15 31 15 10 26 -12 7 -19 16 -16 21 3 5 -8 16 -24 24 -25 14 -30 14 -35 1 -3
-8 -3 -23 0 -32 4 -11 2 -14 -3 -8 -10 12 -34 18 -31 8 4 -16 -14 -53 -23 -47
-5 3 -16 -11 -25 -31 -10 -26 -20 -35 -30 -31 -9 3 -19 6 -23 6 -16 0 -31 54
-31 114 0 57 3 67 30 96 l29 31 31 -17 c20 -12 30 -27 31 -44z m-150 -52 c-3
-35 -6 -53 -9 -40 -4 24 -27 30 -35 10 -3 -10 -7 -10 -17 -1 -9 8 -9 15 -1 25
6 7 20 25 32 41 11 15 23 27 27 27 4 0 5 -28 3 -62z m1553 31 c20 -23 26 -42
26 -78 0 -132 -77 -201 -184 -165 -40 14 -46 19 -40 38 3 11 7 26 8 31 2 14
26 23 63 24 17 1 38 4 47 7 20 8 21 41 1 60 -16 17 -20 44 -6 44 4 0 8 8 8 18
0 45 4 52 27 52 15 0 34 -12 50 -31z m1535 -34 c16 -14 40 -41 51 -61 l22 -34
46 33 c26 19 64 40 86 47 34 11 41 10 64 -7 57 -43 67 -67 67 -166 0 -83 -3
-99 -32 -160 -41 -87 -110 -174 -187 -237 -34 -28 -64 -50 -68 -50 -21 0 -2
23 49 59 31 23 53 41 49 41 -6 0 54 69 96 109 9 9 28 51 42 93 41 121 33 225
-20 269 -11 8 -8 1 7 -19 37 -52 31 -154 -16 -247 -28 -54 -149 -205 -165
-205 -10 0 -14 56 -10 135 1 21 -6 63 -16 92 l-18 54 43 37 c28 24 42 44 40
55 -4 16 -7 15 -39 -8 -19 -14 -40 -23 -48 -20 -7 2 -10 0 -7 -5 3 -6 -2 -23
-11 -39 -16 -27 -19 -28 -38 -15 -38 26 -47 22 -101 -53 -11 -15 -14 -14 -30
11 -15 22 -16 31 -6 52 6 14 11 34 11 44 0 11 6 20 13 21 6 0 2 4 -10 9 -63
25 22 166 87 145 10 -3 35 -23 55 -43 25 -25 33 -29 26 -15 -15 30 -80 73
-109 73 -14 0 -38 -14 -57 -33 -27 -27 -34 -44 -44 -107 -16 -100 -19 -105
-20 -39 -1 83 23 145 72 180 49 36 86 37 126 4z m-2918 -230 c-2 -38 -5 -72
-7 -74 -3 -3 -19 9 -36 26 -22 22 -33 45 -38 78 l-7 46 46 -3 46 -3 -4 -70z
m1348 -11 c-15 -14 -49 -10 -49 6 0 8 50 19 59 12 3 -1 -2 -9 -10 -18z m-48
-23 c42 -43 41 -93 -5 -135 -66 -60 -248 -123 -285 -98 -7 6 -15 34 -17 68 -2
33 -9 71 -15 86 -23 56 18 57 86 3 67 -54 82 -59 99 -33 16 26 31 85 27 110
-1 9 6 18 16 21 43 11 66 6 94 -22z m1640 -14 c-10 -9 -11 -8 -5 6 3 10 9 15
12 12 3 -3 0 -11 -7 -18z m-1571 -106 c0 -14 5 -18 20 -14 24 6 26 -4 16 -60
-3 -17 2 -35 14 -49 15 -19 21 -21 43 -11 32 15 37 9 37 -39 l0 -38 40 6 c36
6 40 4 50 -20 13 -34 13 -39 0 -31 -13 8 -49 -34 -50 -56 0 -15 56 -66 69 -62
3 1 8 12 11 25 9 35 34 29 38 -9 4 -36 -26 -73 -58 -73 -22 0 -98 65 -132 112
-16 23 -17 32 -8 43 9 11 10 15 1 15 -14 0 -86 72 -149 147 l-42 52 42 40 c48
46 58 49 58 22z m265 -21 c17 -4 22 -8 12 -9 -15 -1 -16 -3 -5 -15 7 -8 15
-12 18 -11 3 2 7 -6 7 -18 2 -17 0 -19 -7 -7 -9 13 -11 13 -20 0 -8 -12 -13
-13 -29 -3 -15 10 -21 10 -24 0 -3 -7 -6 1 -6 16 -1 16 -5 26 -10 23 -5 -3 -7
-16 -5 -29 2 -12 2 -16 -2 -9 -6 14 -34 17 -34 3 0 -17 -29 -20 -42 -3 -11 15
-11 15 3 5 18 -14 29 -8 29 16 0 14 -2 14 -10 1 -5 -8 -10 -10 -10 -4 0 6 7
17 15 24 11 9 15 9 15 1 0 -8 4 -8 14 1 12 11 11 14 -3 20 -22 9 56 8 94 -2z
m-1051 -12 c-3 -4 -11 -5 -19 -1 -21 7 -19 12 4 10 11 0 18 -5 15 -9z m96 -8
c0 -5 -2 -10 -4 -10 -3 0 -8 5 -11 10 -3 6 -1 10 4 10 6 0 11 -4 11 -10z m286
-59 c14 -16 40 -35 59 -41 30 -10 44 -7 125 25 99 41 101 40 142 -18 17 -24
18 -31 7 -38 -12 -8 -12 -11 1 -19 21 -14 33 -12 24 3 -5 6 15 -8 44 -31 31
-26 60 -61 71 -88 11 -24 24 -44 30 -44 19 0 65 -72 66 -104 0 -17 -2 -33 -5
-36 -7 -7 -59 -140 -55 -140 2 0 23 32 46 70 23 39 46 69 52 67 34 -11 32 -56
-7 -172 -3 -11 5 3 18 32 30 62 41 70 68 46 32 -28 21 -145 -28 -305 -38 -123
-54 -155 -54 -104 0 23 -47 73 -58 62 -2 -3 -4 -26 -4 -51 1 -26 -3 -45 -10
-45 -37 0 -98 31 -144 73 -47 42 -58 48 -83 42 -55 -12 -94 33 -56 65 22 19 9
30 -25 20 -17 -5 -30 -7 -30 -5 0 5 132 96 148 103 11 4 13 -2 7 -26 -14 -65
49 -152 121 -167 l29 -6 -30 17 c-44 24 -82 62 -95 95 -11 24 -9 34 9 64 11
19 18 42 14 51 -8 21 -45 34 -96 34 -50 0 -103 25 -129 61 -12 15 -21 49 -24
85 -9 104 -14 124 -45 159 -21 23 -47 39 -84 50 -54 15 -55 16 -69 68 -8 28
-18 73 -21 98 -6 41 -4 48 16 63 30 20 26 21 55 -13z m3190 -123 c-50 -58 -80
-80 -69 -52 3 8 -1 14 -11 14 -31 0 -16 79 28 149 l27 42 38 -48 38 -48 -51
-57z m-2616 97 c7 -8 8 -15 2 -15 -5 0 -15 7 -22 15 -7 8 -8 15 -2 15 5 0 15
-7 22 -15z m1269 -141 c4 -4 -6 -31 -69 -184 -28 -69 -85 -224 -126 -345 -94
-281 -133 -388 -143 -398 -10 -10 -188 131 -253 200 -25 28 -55 68 -67 91 -21
42 -28 46 -96 58 -83 14 -217 83 -307 158 -44 36 -46 48 -15 73 12 10 60 62
105 116 46 53 87 97 90 97 4 0 31 -36 59 -79 29 -44 62 -85 75 -92 21 -11 22
-11 9 4 -11 14 -11 20 0 33 10 13 10 17 -2 25 -8 5 -10 9 -5 9 6 0 2 6 -9 13
-14 11 -15 16 -5 22 7 4 16 2 21 -6 5 -8 9 -9 9 -3 0 23 -24 33 -44 18 -25
-18 -40 -18 -33 0 3 8 1 17 -6 19 -7 2 6 3 29 3 22 -1 51 -8 65 -17 41 -26
153 -24 273 5 59 14 116 26 126 26 10 0 22 9 25 20 3 11 11 20 16 20 12 0 12
-27 -1 -32 -14 -4 -22 -45 -19 -88 1 -19 2 -45 2 -58 -1 -18 2 -20 13 -11 8 6
14 16 14 21 0 16 111 201 139 232 49 54 102 75 130 50z m129 -34 c7 0 30 11
53 25 51 33 64 25 39 -26 -21 -40 -17 -53 6 -22 7 10 15 15 18 12 4 -3 18
-100 31 -215 14 -115 29 -228 35 -251 14 -59 13 -63 -17 -64 l-28 -2 28 -4
c15 -2 27 -6 27 -8 0 -7 51 -280 56 -301 7 -27 -32 -44 -112 -48 -33 -2 -77
-7 -99 -11 -37 -6 -46 -3 -89 30 -51 38 -52 39 -137 19 -20 -4 -34 1 -61 25
-20 17 -43 31 -53 31 -26 0 -75 32 -75 50 0 17 85 273 101 301 5 11 16 16 24
13 19 -8 20 12 0 23 -12 7 -7 28 29 128 57 159 73 195 85 195 6 0 11 -15 12
-32 l1 -33 9 30 c13 42 38 73 47 58 4 -6 7 20 7 57 l0 69 26 -25 c14 -13 31
-24 37 -24z m221 30 c25 -13 45 -71 85 -245 19 -82 38 -161 44 -174 12 -34 24
-10 12 25 -12 37 -33 184 -27 190 2 3 51 -30 107 -72 118 -87 287 -174 354
-181 43 -5 48 -3 83 33 21 22 57 62 80 89 l41 50 71 -149 c83 -173 88 -206 39
-236 -66 -40 -191 -81 -282 -93 -69 -8 -95 -16 -111 -32 -64 -66 -186 -150
-305 -210 -81 -41 -98 -43 -104 -12 -2 12 -14 65 -25 117 -48 223 -85 445
-106 637 -20 191 -20 249 3 262 21 13 20 13 41 1z m911 -32 c0 -11 -7 -45 -16
-75 -14 -49 -18 -54 -31 -40 -13 12 -13 23 -3 73 7 33 14 62 16 66 9 14 34 -4
34 -24z m-1220 -57 c0 -11 -19 -24 -37 -27 -16 -3 -17 8 -1 24 14 14 38 16 38
3z m1250 -187 c30 -41 59 -81 64 -88 7 -10 -5 -30 -39 -70 -27 -31 -53 -55
-58 -53 -12 4 -97 194 -97 217 0 35 18 30 31 -7 7 -21 14 -33 16 -26 2 6 -3
26 -12 43 -20 38 -14 60 17 59 17 0 38 -21 78 -75z m-125 36 c-5 -8 -11 -8
-17 -2 -6 6 -7 16 -3 22 5 8 11 8 17 2 6 -6 7 -16 3 -22z m627 -87 c10 -9 18
-22 18 -28 0 -10 10 -11 36 -5 35 8 35 8 29 -21 -4 -18 -1 -41 9 -61 9 -17 15
-32 14 -33 -15 -12 -91 -45 -105 -45 -10 0 -29 7 -42 16 -30 22 -67 20 -141
-5 -33 -12 -73 -21 -89 -21 -16 0 -42 -7 -57 -15 -16 -8 -39 -15 -51 -15 -21
0 -23 5 -23 54 0 71 26 106 78 106 20 0 50 -7 66 -15 26 -14 30 -13 57 9 16
13 43 28 61 31 18 4 44 20 59 36 31 33 54 36 81 12z m-422 -228 c0 -5 -5 -3
-10 5 -5 8 -10 20 -10 25 0 6 5 3 10 -5 5 -8 10 -19 10 -25z m-2631 -165 c6
-18 6 -30 0 -30 -5 0 -9 7 -9 16 0 8 -4 13 -8 10 -4 -2 -8 4 -8 15 0 28 13 23
25 -11z"/>
<path d="M5550 6939 c0 -5 -4 -7 -10 -4 -20 12 -9 -12 15 -33 14 -13 27 -17
31 -11 4 7 10 7 18 0 8 -7 12 -4 13 12 1 12 -1 17 -5 12 -10 -14 -44 -13 -49
2 -3 7 4 10 19 6 23 -5 23 -5 3 10 -23 19 -35 21 -35 6z"/>
<path d="M5676 6832 c-3 -5 1 -9 9 -9 8 0 12 4 9 9 -3 4 -7 8 -9 8 -2 0 -6 -4
-9 -8z"/>
<path d="M5657 6789 c7 -7 15 -10 18 -7 3 3 -2 9 -12 12 -14 6 -15 5 -6 -5z"/>
<path d="M1583 6075 c-10 -10 -9 -16 3 -26 12 -10 13 -9 8 5 -4 11 -2 16 6 14
7 -2 15 4 17 12 4 12 3 12 -5 1 -6 -7 -11 -9 -13 -3 -3 6 -9 5 -16 -3z"/>
<path d="M6901 5726 c-9 -10 -8 -15 2 -19 8 -3 13 3 13 14 0 23 0 23 -15 5z"/>
<path d="M1603 5914 c-6 -13 -7 -24 -3 -24 9 0 25 39 18 45 -2 2 -8 -7 -15
-21z"/>
<path d="M1577 5835 c-9 -19 -15 -35 -12 -35 7 0 37 61 33 66 -3 2 -12 -12
-21 -31z"/>
<path d="M1600 3326 c0 -2 8 -10 18 -17 15 -13 16 -12 3 4 -13 16 -21 21 -21
13z"/>
<path d="M1680 3213 c69 -124 111 -193 116 -193 3 0 -4 17 -16 38 -13 20 -45
76 -72 125 -28 48 -52 87 -55 87 -3 0 10 -26 27 -57z"/>
<path d="M1470 3047 c6 -16 36 -57 67 -92 43 -48 61 -78 74 -122 9 -32 19 -66
24 -75 10 -23 -48 -58 -97 -58 -32 0 -42 6 -75 46 -34 40 -115 94 -142 94 -6
0 1 -11 15 -25 14 -14 29 -25 35 -25 5 0 29 -18 52 -41 23 -22 55 -47 71 -56
37 -20 99 -12 139 17 26 20 32 21 54 9 35 -19 89 -16 113 6 18 17 20 29 18
139 l-2 121 -5 -116 c-7 -130 -15 -149 -66 -149 -50 0 -89 39 -120 119 -16 43
-44 90 -73 123 -26 29 -57 67 -70 83 l-22 30 10 -28z"/>
<path d="M4900 3101 c0 -6 4 -12 8 -15 5 -3 9 1 9 9 0 8 -4 15 -9 15 -4 0 -8
-4 -8 -9z"/>
<path d="M3070 2960 c0 -5 9 -10 19 -10 28 0 73 -41 88 -81 l13 -34 -5 34 c-6
39 -27 66 -67 87 -32 17 -48 18 -48 4z"/>
<path d="M2658 2195 c2 -20 -1 -42 -8 -50 -11 -13 -10 -14 3 -10 20 8 28 41
17 71 -13 33 -17 30 -12 -11z"/>
<path d="M2314 2161 c0 -10 5 -18 11 -18 7 0 12 6 12 13 0 7 -5 15 -12 17 -6
3 -11 -3 -11 -12z"/>
<path d="M2310 2119 c0 -5 5 -7 10 -4 6 3 10 8 10 11 0 2 -4 4 -10 4 -5 0 -10
-5 -10 -11z"/>
<path d="M3995 1785 l-30 -14 30 6 c17 3 41 10 55 14 l25 7 -25 1 c-14 0 -38
-6 -55 -14z"/>
<path d="M2540 1400 c0 -5 5 -10 10 -10 6 0 10 5 10 10 0 6 -4 10 -10 10 -5 0
-10 -4 -10 -10z"/>
<path d="M2176 1262 c-3 -5 1 -9 9 -9 8 0 15 4 15 9 0 4 -4 8 -9 8 -6 0 -12
-4 -15 -8z"/>
<path d="M2260 1130 c-19 -11 -30 -19 -25 -19 6 0 26 8 45 19 19 11 31 19 25
19 -5 0 -26 -8 -45 -19z"/>
<path d="M2299 1021 c-13 -11 -19 -20 -13 -21 15 0 50 27 43 34 -3 4 -17 -2
-30 -13z"/>
<path d="M2341 738 c-1 -9 -13 -26 -28 -37 -21 -16 -24 -20 -11 -21 21 0 52
44 45 62 -4 9 -6 7 -6 -4z"/>
<path d="M3855 1099 c-4 -6 -5 -12 -2 -15 2 -3 7 2 10 11 7 17 1 20 -8 4z"/>
<path d="M3842 1040 c0 -19 2 -27 5 -17 2 9 2 25 0 35 -3 9 -5 1 -5 -18z"/>
<path d="M3911 1034 c0 -11 3 -14 6 -6 3 7 2 16 -1 19 -3 4 -6 -2 -5 -13z"/>
<path d="M3790 871 c-50 -49 -52 -110 -5 -157 36 -36 79 -32 121 10 45 45 47
95 5 137 -16 16 -38 29 -48 28 -15 0 -15 -2 3 -9 55 -22 70 -95 29 -135 -28
-29 -54 -31 -94 -10 -52 26 -48 97 7 142 15 12 23 22 19 23 -5 0 -21 -13 -37
-29z"/>
<path d="M4930 862 c0 -5 7 -13 16 -16 10 -4 14 -1 12 6 -5 15 -28 23 -28 10z"/>
<path d="M3789 7630 c-30 -22 -63 -53 -74 -68 -13 -18 -2 -12 31 18 27 25 63
55 79 67 17 12 27 22 24 22 -3 1 -30 -17 -60 -39z"/>
<path d="M3200 7630 c-8 -5 -10 -10 -5 -10 6 0 17 5 25 10 8 5 11 10 5 10 -5
0 -17 -5 -25 -10z"/>
<path d="M4398 7563 c7 -3 16 -2 19 1 4 3 -2 6 -13 5 -11 0 -14 -3 -6 -6z"/>
<path d="M3865 7530 c-33 -16 -73 -41 -90 -55 -24 -21 -25 -23 -5 -11 14 8 59
33 100 55 87 47 83 54 -5 11z"/>
<path d="M3933 7430 c-63 -13 -203 -94 -203 -118 0 -5 21 -5 48 -1 188 31 389
-11 546 -116 29 -19 57 -35 62 -35 5 0 29 -16 53 -35 73 -58 61 -28 -19 48
-138 133 -279 225 -384 253 -28 8 -53 13 -56 13 -3 -1 -24 -5 -47 -9z m42 -29
c3 -6 -6 -8 -22 -5 -15 3 -25 2 -21 -1 7 -8 32 -13 73 -15 30 -2 30 -2 5 -10
-14 -4 -19 -8 -11 -9 8 -1 11 -4 8 -7 -4 -4 -13 -1 -22 6 -8 7 -15 8 -15 3 0
-6 -30 -13 -67 -17 -38 -3 -81 -8 -98 -11 -16 -2 -22 -2 -12 1 9 3 14 10 11
16 -5 7 -2 8 5 4 7 -5 20 -1 29 8 39 35 124 58 137 37z m125 -31 c8 -5 11 -10
5 -10 -5 0 -17 5 -25 10 -8 5 -10 10 -5 10 6 0 17 -5 25 -10z"/>
<path d="M4750 7416 c0 -3 9 -10 20 -16 11 -6 20 -8 20 -6 0 3 -9 10 -20 16
-11 6 -20 8 -20 6z"/>
<path d="M4865 7345 c11 -9 29 -21 40 -26 l20 -10 -20 16 c-11 9 -29 21 -40
26 l-20 10 20 -16z"/>
<path d="M3220 7287 c-176 -42 -402 -244 -574 -517 -86 -135 -187 -342 -235
-482 -47 -138 -104 -407 -126 -600 -18 -162 -21 -663 -5 -808 39 -346 74 -497
155 -675 50 -110 194 -325 217 -325 6 0 4 8 -4 18 -8 9 -28 40 -43 67 -15 28
-49 82 -75 120 -65 96 -96 161 -120 247 -21 78 -40 221 -40 303 l0 50 58 -98
c31 -54 88 -143 127 -198 67 -96 69 -101 50 -115 -10 -8 -37 -15 -59 -15 -34
-2 -36 -3 -11 -6 50 -7 54 -21 15 -53 l-35 -29 31 -1 c43 0 117 -24 151 -48
l29 -21 13 34 c14 41 90 111 146 136 120 53 265 45 450 -27 20 -7 20 -7 0 15
-15 18 -16 24 -6 30 11 7 10 13 -4 34 -9 15 -14 31 -11 36 11 16 -133 78 -223
97 -112 22 -215 15 -295 -20 -39 -17 -77 -26 -115 -27 l-56 -1 43 -15 44 -15
-39 -40 -38 -39 -12 30 c-21 51 -61 269 -73 402 -14 139 -9 520 6 557 8 18 12
4 22 -74 14 -112 53 -271 83 -340 11 -27 49 -91 85 -144 67 -99 162 -210 150
-175 -4 11 -20 74 -36 140 -36 151 -60 381 -60 575 l0 150 38 1 c26 1 29 3 12
6 -51 8 -57 15 -25 29 23 11 25 14 8 12 -27 -4 -27 -5 -19 90 9 104 32 217 68
332 24 79 27 99 17 117 -9 17 -10 29 -1 46 6 12 13 33 15 47 2 14 5 -2 6 -35
3 -126 36 -358 72 -510 25 -108 25 -108 -13 -101 l-33 6 35 -14 35 -14 -35 -2
c-20 -2 -27 -4 -15 -7 11 -2 30 -6 41 -8 16 -3 25 -18 34 -52 22 -80 95 -263
145 -363 43 -88 185 -314 192 -307 1 2 -15 46 -36 98 -69 168 -116 352 -141
549 -5 47 -12 101 -15 120 -3 19 8 -3 24 -50 47 -141 106 -289 155 -392 47
-98 151 -264 183 -289 9 -8 -4 15 -29 51 -171 242 -312 631 -369 1014 -10 71
-21 131 -24 134 -16 16 8 -304 40 -528 25 -181 91 -444 140 -557 l25 -58 -25
30 c-61 73 -186 350 -235 520 -13 44 -31 105 -41 136 -21 66 -55 247 -69 372
-12 105 -15 388 -5 507 6 68 5 83 -5 73 -7 -7 -16 -31 -20 -55 -4 -24 -17 -77
-28 -118 -56 -202 -85 -388 -117 -747 l-7 -73 -37 1 c-20 1 -64 -10 -98 -24
l-63 -26 -1 182 c-2 198 -4 192 -33 -73 l-15 -135 -63 -58 -63 -58 58 45 c32
26 59 46 60 46 1 0 1 -96 -1 -212 -4 -235 8 -417 39 -599 11 -67 18 -123 16
-126 -8 -7 -93 129 -141 225 -138 276 -181 580 -141 998 31 326 77 521 183
784 73 180 176 362 256 454 15 16 26 34 26 41 0 17 45 56 55 48 4 -5 5 -3 2 3
-4 7 1 18 10 25 14 12 15 12 9 1 -7 -12 -4 -12 15 -2 13 7 26 16 29 19 16 20
146 101 228 143 61 31 84 47 62 42 -19 -4 -45 -7 -57 -7 -13 0 -23 -3 -23 -8
0 -5 -7 -9 -15 -9 -9 0 -30 -13 -48 -29 -42 -38 -157 -115 -163 -109 -6 7 131
135 169 158 17 11 34 17 39 14 5 -3 7 0 6 7 -2 9 10 12 42 11 39 -1 42 0 21 8
-59 25 64 60 213 61 82 0 105 3 87 10 -41 16 -163 19 -221 6z m-440 -1999 c0
-212 33 -485 76 -637 8 -29 13 -55 10 -58 -16 -16 -180 250 -210 340 -43 130
-82 419 -59 438 18 15 123 48 156 48 l27 1 0 -132z"/>
<path d="M3851 7143 c36 -40 76 -104 137 -218 62 -118 59 -90 -5 41 -46 93
-124 204 -145 204 -6 0 -1 -12 13 -27z"/>
<path d="M3136 7008 c-8 -13 -22 -40 -32 -60 -10 -21 -21 -38 -25 -38 -18 0
-84 -230 -77 -267 2 -10 16 21 31 69 15 48 44 124 63 170 20 46 43 98 50 116
16 37 11 42 -10 10z"/>
<path d="M5651 6498 c7 -12 28 -47 47 -76 19 -30 68 -121 108 -203 94 -189
110 -202 33 -28 l-29 68 25 25 c25 25 35 53 14 40 -9 -5 -10 7 -5 42 l6 49
-14 -35 c-7 -19 -19 -50 -26 -67 -14 -38 -26 -42 -35 -12 -8 25 -124 219 -131
219 -3 0 1 -10 7 -22z"/>
<path d="M3365 6005 c10 -46 83 -213 123 -280 43 -73 111 -163 143 -190 13
-11 3 5 -23 35 -83 100 -150 218 -215 379 -19 48 -31 73 -28 56z"/>
<path d="M4043 5885 c0 -38 2 -53 4 -32 2 20 2 52 0 70 -2 17 -4 1 -4 -38z"/>
<path d="M5811 5754 c0 -11 3 -14 6 -6 3 7 2 16 -1 19 -3 4 -6 -2 -5 -13z"/>
<path d="M5821 5714 c0 -11 3 -14 6 -6 3 7 2 16 -1 19 -3 4 -6 -2 -5 -13z"/>
<path d="M5835 5653 c16 -92 28 -137 32 -125 6 15 -26 162 -34 162 -3 0 -2
-17 2 -37z"/>
<path d="M4850 5639 c60 -10 108 -9 55 2 -22 4 -53 8 -70 7 -22 0 -19 -3 15
-9z"/>
<path d="M4958 5623 c7 -3 16 -2 19 1 4 3 -2 6 -13 5 -11 0 -14 -3 -6 -6z"/>
<path d="M4998 5613 c7 -3 16 -2 19 1 4 3 -2 6 -13 5 -11 0 -14 -3 -6 -6z"/>
<path d="M4179 5590 l-24 -21 33 16 c31 15 41 25 23 25 -5 0 -19 -9 -32 -20z"/>
<path d="M3679 5562 c5 -10 18 -25 27 -33 11 -9 9 -2 -6 19 -26 35 -36 42 -21
14z"/>
<path d="M3780 5446 c67 -69 165 -144 176 -134 3 4 -10 14 -30 23 -19 9 -75
53 -123 98 -85 77 -85 78 -23 13z"/>
<path d="M5872 5485 c0 -16 2 -22 5 -12 2 9 2 23 0 30 -3 6 -5 -1 -5 -18z"/>
<path d="M5882 5425 c0 -16 2 -22 5 -12 2 9 2 23 0 30 -3 6 -5 -1 -5 -18z"/>
<path d="M3750 5426 c0 -2 8 -10 18 -17 15 -13 16 -12 3 4 -13 16 -21 21 -21
13z"/>
<path d="M5892 5360 c0 -19 2 -27 5 -17 2 9 2 25 0 35 -3 9 -5 1 -5 -18z"/>
<path d="M5902 5285 c0 -16 2 -22 5 -12 2 9 2 23 0 30 -3 6 -5 -1 -5 -18z"/>
<path d="M3414 5235 c22 -85 63 -221 83 -275 31 -82 106 -239 128 -265 9 -11
-2 16 -24 61 -37 76 -100 243 -115 309 -5 21 8 6 39 -45 121 -194 237 -301
442 -404 98 -49 116 -46 24 5 -247 134 -358 244 -499 494 -71 128 -86 150 -78
120z"/>
<path d="M6052 5205 c0 -16 2 -22 5 -12 2 9 2 23 0 30 -3 6 -5 -1 -5 -18z"/>
<path d="M5912 5090 c-3 -132 -19 -362 -33 -460 -19 -136 -88 -370 -135 -462
-9 -16 -13 -32 -11 -35 6 -6 79 146 97 202 7 22 19 49 26 60 39 61 79 484 65
690 l-8 110 -1 -105z"/>
<path d="M3971 4974 c0 -11 3 -14 6 -6 3 7 2 16 -1 19 -3 4 -6 -2 -5 -13z"/>
<path d="M7626 4980 c15 -28 65 -100 70 -100 8 0 -27 57 -54 88 -13 15 -20 20
-16 12z"/>
<path d="M3981 4934 c0 -11 3 -14 6 -6 3 7 2 16 -1 19 -3 4 -6 -2 -5 -13z"/>
<path d="M3991 4894 c0 -11 3 -14 6 -6 3 7 2 16 -1 19 -3 4 -6 -2 -5 -13z"/>
<path d="M4002 4860 c0 -8 6 -31 13 -50 7 -19 13 -28 13 -20 0 8 -6 31 -13 50
-7 19 -13 28 -13 20z"/>
<path d="M7760 4780 c22 -33 43 -60 46 -60 2 0 -14 27 -36 60 -22 33 -43 60
-46 60 -2 0 14 -27 36 -60z"/>
<path d="M1305 4727 c-4 -35 -5 -73 -3 -83 2 -10 8 16 12 59 4 43 6 81 3 84
-3 2 -8 -24 -12 -60z"/>
<path d="M4037 4773 c-4 -6 2 -28 12 -49 10 -22 26 -56 36 -77 23 -49 28 -43
10 15 -18 62 -51 123 -58 111z"/>
<path d="M7825 4674 c9 -17 26 -41 37 -55 17 -20 16 -18 -3 16 -12 22 -29 47
-37 55 -10 11 -10 6 3 -16z"/>
<path d="M7666 4622 c21 -39 40 -69 42 -67 5 5 -57 123 -69 131 -7 4 6 -25 27
-64z"/>
<path d="M630 4620 c-7 -28 -10 -53 -7 -56 2 -3 10 18 17 46 7 28 10 53 7 56
-2 3 -10 -18 -17 -46z"/>
<path d="M3665 4623 c8 -18 18 -33 20 -33 10 0 4 16 -16 40 l-20 25 16 -32z"/>
<path d="M1277 4588 c-4 -12 -4 -24 -2 -27 3 -2 5 2 5 10 0 11 2 11 10 -1 8
-12 10 -9 10 13 0 32 -15 36 -23 5z"/>
<path d="M7910 4530 c11 -22 23 -40 25 -40 3 0 -4 18 -15 40 -11 22 -23 40
-25 40 -3 0 4 -18 15 -40z"/>
<path d="M611 4524 c0 -11 3 -14 6 -6 3 7 2 16 -1 19 -3 4 -6 -2 -5 -13z"/>
<path d="M601 4474 c0 -11 3 -14 6 -6 3 7 2 16 -1 19 -3 4 -6 -2 -5 -13z"/>
<path d="M7646 4477 c3 -10 9 -15 12 -12 3 3 0 11 -7 18 -10 9 -11 8 -5 -6z"/>
<path d="M7941 4475 c0 -5 8 -26 19 -45 11 -19 19 -30 19 -25 0 6 -8 26 -19
45 -11 19 -19 31 -19 25z"/>
<path d="M2221 4434 c0 -11 3 -14 6 -6 3 7 2 16 -1 19 -3 4 -6 -2 -5 -13z"/>
<path d="M592 4410 c0 -19 2 -27 5 -17 2 9 2 25 0 35 -3 9 -5 1 -5 -18z"/>
<path d="M1291 4424 c0 -11 3 -14 6 -6 3 7 2 16 -1 19 -3 4 -6 -2 -5 -13z"/>
<path d="M1251 4341 c-17 -34 -29 -61 -27 -61 8 0 67 112 62 117 -2 3 -19 -22
-35 -56z"/>
<path d="M7986 4375 c3 -11 17 -51 31 -90 13 -38 35 -115 49 -170 15 -64 22
-82 19 -50 -8 68 -50 213 -80 277 -14 29 -23 44 -19 33z"/>
<path d="M5982 4240 c0 -19 2 -27 5 -17 2 9 2 25 0 35 -3 9 -5 1 -5 -18z"/>
<path d="M4553 4242 c-18 -11 38 -86 74 -100 92 -36 356 -43 374 -10 5 9 17
24 25 33 18 18 18 20 -13 29 -12 4 -24 2 -28 -4 -3 -6 -25 -20 -48 -32 -37
-18 -53 -20 -142 -15 -61 3 -112 12 -130 21 -17 9 -36 16 -43 16 -7 0 -20 16
-29 35 -18 37 -21 39 -40 27z"/>
<path d="M6700 4156 c0 -16 74 -184 125 -284 30 -59 107 -183 171 -277 64 -93
134 -204 157 -245 58 -108 597 -914 605 -906 6 6 -98 181 -182 306 -58 88
-136 215 -136 224 0 2 7 3 15 3 8 0 12 -4 9 -9 -3 -4 0 -16 6 -25 8 -13 10
-14 8 -3 -2 9 1 16 5 17 4 1 15 9 23 18 24 24 43 18 59 -20 13 -33 13 -37 -5
-55 -10 -10 -21 -16 -24 -13 -3 3 5 14 17 24 12 10 19 18 15 19 -12 0 -58 -43
-58 -54 0 -6 5 -4 11 4 9 12 10 12 5 -4 -4 -12 1 -26 14 -38 13 -13 20 -15 20
-6 0 8 5 6 11 -5 17 -28 28 -10 19 30 -11 47 -5 56 8 11 14 -48 101 -251 113
-263 10 -10 -8 42 -74 215 -25 63 -43 117 -41 119 2 3 19 -9 37 -25 17 -17 73
-61 122 -99 50 -38 96 -73 103 -78 6 -5 12 -7 12 -4 0 3 -45 39 -99 81 -324
248 -741 712 -894 996 -29 52 -78 151 -110 220 -58 123 -67 140 -67 126z"/>
<path d="M5979 4124 c-5 -15 -7 -29 -5 -32 5 -4 10 6 22 46 7 23 -7 12 -17
-14z"/>
<path d="M7960 4099 c0 -3 14 -45 30 -95 33 -96 56 -215 69 -359 l8 -90 2 81
c1 90 -26 241 -64 362 -22 67 -44 119 -45 101z"/>
<path d="M1141 4074 c0 -11 3 -14 6 -6 3 7 2 16 -1 19 -3 4 -6 -2 -5 -13z"/>
<path d="M8091 3984 c0 -11 3 -14 6 -6 3 7 2 16 -1 19 -3 4 -6 -2 -5 -13z"/>
<path d="M5514 3838 l-29 -33 33 29 c17 17 32 31 32 33 0 8 -8 1 -36 -29z"/>
<path d="M7406 3795 c11 -130 44 -286 80 -379 5 -14 4 -17 -5 -11 -8 4 -6 -4
4 -19 10 -14 23 -26 30 -26 9 0 6 17 -11 58 -24 61 -57 190 -70 277 -7 47 -6
49 11 35 17 -14 17 -14 0 19 -9 19 -23 50 -31 70 -13 36 -13 35 -8 -24z"/>
<path d="M3840 3793 c-84 -13 -116 -26 -142 -56 l-27 -32 -36 19 c-34 18 -37
19 -53 2 -34 -33 -12 -181 45 -308 27 -61 63 -106 43 -54 -15 41 -12 156 6
209 22 65 92 140 162 173 81 39 219 46 280 15 22 -11 47 -21 55 -21 22 0 111
-91 132 -135 19 -40 25 -141 11 -197 -3 -13 2 -7 11 12 19 41 28 165 19 244
-6 43 -14 61 -39 85 -35 35 -59 38 -105 15 -30 -14 -34 -14 -75 10 -40 24 -53
26 -153 25 -60 -1 -120 -3 -134 -6z"/>
<path d="M8005 3593 c-25 -49 -64 -102 -105 -144 -36 -37 -59 -64 -50 -59 27
15 117 115 154 172 30 48 55 108 45 108 -2 0 -22 -35 -44 -77z"/>
<path d="M7371 3540 c23 -33 49 -66 57 -72 9 -7 -8 20 -37 60 -29 39 -55 72
-57 72 -3 0 14 -27 37 -60z"/>
<path d="M8033 3473 c-31 -78 -116 -188 -183 -234 -30 -21 -83 -46 -116 -56
l-62 -17 92 -86 c50 -48 109 -102 131 -120 22 -18 -12 17 -75 78 l-114 110 29
12 c77 31 103 44 146 76 82 60 184 215 177 269 -2 22 -7 17 -25 -32z"/>
<path d="M6215 3429 c-4 -6 -5 -12 -2 -15 2 -3 7 2 10 11 7 17 1 20 -8 4z"/>
<path d="M4225 3239 c-4 -6 -25 -24 -47 -40 -23 -16 -36 -29 -29 -29 12 0 101
79 89 80 -4 0 -10 -5 -13 -11z"/>
<path d="M3840 3165 c0 -7 58 -35 72 -35 7 1 -3 9 -22 20 -35 19 -50 24 -50
15z"/>
<path d="M5960 3160 c-13 -8 -12 -10 3 -10 9 0 17 5 17 10 0 12 -1 12 -20 0z"/>
<path d="M6440 3141 c0 -6 4 -13 10 -16 6 -3 7 1 4 9 -7 18 -14 21 -14 7z"/>
<path d="M7484 2914 c3 -9 6 -18 6 -20 0 -3 4 -3 10 1 11 7 2 35 -12 35 -6 0
-7 -7 -4 -16z"/>
<path d="M6866 2877 c3 -10 9 -15 12 -12 3 3 0 11 -7 18 -10 9 -11 8 -5 -6z"/>
<path d="M6880 2845 c0 -5 5 -17 10 -25 5 -8 10 -10 10 -5 0 6 -5 17 -10 25
-5 8 -10 11 -10 5z"/>
<path d="M696 2709 c-32 -66 -55 -123 -52 -126 3 -4 13 11 22 33 8 21 33 76
56 122 22 46 38 86 35 88 -2 2 -30 -50 -61 -117z"/>
<path d="M291 2754 c0 -11 3 -14 6 -6 3 7 2 16 -1 19 -3 4 -6 -2 -5 -13z"/>
<path d="M6925 2740 c9 -31 133 -271 147 -285 9 -9 -139 294 -150 305 -2 3 -1
-6 3 -20z"/>
<path d="M6235 2740 c-3 -5 -2 -10 4 -10 5 0 13 5 16 10 3 6 2 10 -4 10 -5 0
-13 -4 -16 -10z"/>
<path d="M3620 2732 c0 -15 21 -28 74 -46 96 -31 116 -12 23 22 -81 30 -97 34
-97 24z"/>
<path d="M6820 2667 c-1 -23 123 -246 191 -346 133 -194 144 -207 248 -306 29
-27 76 -87 103 -132 46 -74 52 -81 64 -65 30 39 13 66 -125 198 -62 60 -139
140 -171 179 -65 80 -193 272 -262 396 -26 46 -48 81 -48 76z"/>
<path d="M3573 2629 c4 -13 7 -27 7 -31 0 -5 9 -8 21 -8 14 0 19 5 16 13 -4
10 2 13 21 10 l27 -4 -25 14 c-14 8 -36 18 -49 22 -21 7 -23 5 -18 -16z"/>
<path d="M4921 2533 c-10 -26 -10 -27 4 -9 8 11 15 23 15 28 0 15 -7 8 -19
-19z"/>
<path d="M7190 2516 c0 -18 83 -158 136 -228 56 -73 221 -237 238 -238 6 0
-36 46 -92 103 -108 108 -197 220 -237 296 -29 56 -45 79 -45 67z"/>
<path d="M7104 2394 c51 -102 262 -404 282 -404 2 0 -29 44 -69 98 -40 53
-103 147 -141 207 -73 116 -99 151 -72 99z"/>
<path d="M4420 2393 c-25 -9 -70 -56 -70 -73 0 -9 -5 -21 -12 -28 -9 -9 -9
-12 0 -12 6 0 18 16 26 35 9 20 30 44 51 56 44 26 47 37 5 22z"/>
<path d="M3610 2286 c0 -2 11 -6 25 -8 14 -3 25 -1 25 3 0 5 -11 9 -25 9 -14
0 -25 -2 -25 -4z"/>
<path d="M3865 2264 c-14 -15 -25 -32 -25 -38 1 -6 10 0 21 14 11 14 28 31 37
38 10 7 11 12 3 12 -6 0 -23 -12 -36 -26z"/>
<path d="M4538 2224 c22 -32 51 -60 55 -53 1 2 -16 22 -37 44 -33 33 -36 35
-18 9z"/>
<path d="M4215 2188 c-11 -6 -39 -27 -61 -47 -23 -20 -54 -44 -68 -54 -14 -10
-26 -26 -25 -35 0 -13 3 -11 9 5 5 12 27 31 49 42 22 12 43 26 46 32 4 5 25
24 47 40 40 29 42 39 3 17z"/>
<path d="M4040 1997 c0 -30 -5 -36 -44 -55 -35 -18 -43 -27 -39 -42 6 -22 23
-37 23 -20 0 5 23 24 51 41 34 21 48 36 45 46 -4 8 -9 26 -12 39 -9 35 -24 29
-24 -9z"/>
<path d="M1418 1936 c17 -20 32 -44 32 -54 0 -14 2 -15 9 -3 11 18 -19 65 -52
83 -17 9 -15 3 11 -26z"/>
<path d="M7435 1940 c10 -11 20 -20 23 -20 3 0 -3 9 -13 20 -10 11 -20 20 -23
20 -3 0 3 -9 13 -20z"/>
<path d="M5251 1854 c0 -11 3 -14 6 -6 3 7 2 16 -1 19 -3 4 -6 -2 -5 -13z"/>
<path d="M1398 1829 c-24 -14 -24 -79 1 -119 l18 -31 23 53 c20 47 21 55 9 77
-17 29 -28 34 -51 20z"/>
<path d="M6925 1762 c9 -18 45 -77 81 -131 35 -55 76 -125 90 -157 l25 -58 24
30 c27 34 34 23 -105 189 -50 61 -101 121 -111 135 l-20 25 16 -33z"/>
<path d="M1511 1749 c-11 -30 -5 -47 21 -55 43 -13 45 31 4 65 -13 11 -17 10
-25 -10z"/>
<path d="M6870 1629 c0 -8 6 -41 14 -74 12 -51 33 -173 53 -305 4 -32 6 -33
19 -16 7 10 12 22 10 25 -3 4 -14 62 -26 131 -24 137 -70 296 -70 239z"/>
<path d="M5986 738 c-25 -24 -27 -31 -15 -39 31 -19 45 -10 47 31 2 22 2 39 0
39 -2 -1 -16 -15 -32 -31z"/>
<path d="M6115 687 c-28 -24 -28 -26 -9 -27 24 0 48 23 42 41 -2 7 -15 2 -33
-14z"/>
<path d="M5543 643 c-9 -3 -13 -26 -12 -71 1 -59 2 -62 8 -27 4 22 11 55 15
73 4 17 6 32 4 31 -2 0 -9 -3 -15 -6z"/>
<path d="M3760 100 c-23 -23 -36 -68 -24 -80 9 -8 224 -19 224 -11 0 14 -48
71 -75 89 -40 28 -98 29 -125 2z m130 -35 c11 -14 8 -13 -21 3 -19 10 -46 18
-61 17 -34 -1 -35 3 -5 14 24 9 64 -6 87 -34z"/>
</g>
</svg>
